<svg xmlns="http://www.w3.org/2000/svg" xmlns:xlink="http://www.w3.org/1999/xlink" id="svg2828" height="700" width="700"><defs id="defs2830"><linearGradient id="linearGradient3852"><stop offset="0" id="stop3854" stop-color="#f90113"/><stop offset="1" id="stop3856" stop-color="#ffbabf"/></linearGradient><filter id="filter3846" height="1.373" width="1.166" y="-.187" x="-.083" color-interpolation-filters="sRGB"><feGaussianBlur id="feGaussianBlur3848" stdDeviation=".512"/></filter><filter id="filter3882" height="1.825" width="1.357" y="-.413" x="-.178" color-interpolation-filters="sRGB"><feGaussianBlur id="feGaussianBlur3884" stdDeviation=".19"/></filter><filter id="filter3764" height="1.671" width="1.413" y="-.336" x="-.206" color-interpolation-filters="sRGB"><feGaussianBlur id="feGaussianBlur3766" stdDeviation="2.787"/></filter><filter id="filter3788" color-interpolation-filters="sRGB"><feGaussianBlur id="feGaussianBlur3790" stdDeviation=".491"/></filter><filter id="filter3814" height="1.579" width="1.195" y="-.289" x="-.098" color-interpolation-filters="sRGB"><feGaussianBlur id="feGaussianBlur3816" stdDeviation="1.163"/></filter><filter id="filter3824" height="1.104" width="3.134" y="-.052" x="-1.067" color-interpolation-filters="sRGB"><feGaussianBlur id="feGaussianBlur3826" stdDeviation=".723"/></filter><filter id="filter3744" height="1.229" width="1.191" y="-.115" x="-.096" color-interpolation-filters="sRGB"><feGaussianBlur id="feGaussianBlur3746" stdDeviation="2.675"/></filter><filter id="filter3760" height="1.219" width="1.357" y="-.109" x="-.178" color-interpolation-filters="sRGB"><feGaussianBlur id="feGaussianBlur3762" stdDeviation="1.441"/></filter><filter id="filter3815" height="1.259" width="1.47" y="-.129" x="-.235" color-interpolation-filters="sRGB"><feGaussianBlur id="feGaussianBlur3817" stdDeviation=".944"/></filter><filter id="filter3860" color-interpolation-filters="sRGB"><feGaussianBlur stdDeviation="1.5" result="result6" id="feGaussianBlur3862"/><feComposite id="feComposite3864" result="result8" in="SourceGraphic" operator="atop" in2="result6"/><feComposite id="feComposite3866" result="result9" in="result8" operator="atop" in2="SourceAlpha"/></filter><filter id="filter3884" color-interpolation-filters="sRGB"><feGaussianBlur stdDeviation="1.5" result="result6" id="feGaussianBlur3886"/><feComposite id="feComposite3888" result="result8" in="SourceGraphic" operator="atop" in2="result6"/><feComposite id="feComposite3890" result="result9" in="result8" operator="atop" in2="SourceAlpha"/></filter><filter id="filter3855" color-interpolation-filters="sRGB"><feGaussianBlur result="result8" stdDeviation="7.152" id="feGaussianBlur3857"/><feOffset result="result11" dy="-.581" dx="-1.163" id="feOffset3859"/><feComposite id="feComposite3861" result="result6" in="SourceGraphic" operator="in" in2="result11"/><feFlood flood-color="#000" flood-opacity="1" result="result10" id="feFlood3863"/><feBlend id="feBlend3865" result="result12" in="result6" in2="result10"/><feComposite id="feComposite3867" result="result2" operator="in" in2="SourceGraphic"/></filter><filter id="filter10361" color-interpolation-filters="sRGB"><feGaussianBlur id="feGaussianBlur10363" stdDeviation="2.951" result="result8"/><feOffset id="feOffset10365" dx="-1.205" dy=".602" result="result11"/><feComposite id="feComposite10367" result="result6" in="SourceGraphic" operator="in" in2="result11"/><feFlood id="feFlood10369" result="result10" flood-opacity=".805" flood-color="#000"/><feBlend id="feBlend10371" result="result12" in="result6" in2="result10"/><feComposite id="feComposite10373" result="result2" operator="in" in2="SourceGraphic"/></filter><filter x="-.083" y="-.187" width="1.166" height="1.373" id="filter3846-1" color-interpolation-filters="sRGB"><feGaussianBlur stdDeviation=".512" id="feGaussianBlur3848-9"/></filter><filter x="-.083" y="-.187" width="1.166" height="1.373" id="filter1653" color-interpolation-filters="sRGB"><feGaussianBlur stdDeviation=".512" id="feGaussianBlur1651"/></filter><filter x="-.083" y="-.187" width="1.166" height="1.373" id="filter1657" color-interpolation-filters="sRGB"><feGaussianBlur stdDeviation=".512" id="feGaussianBlur1655"/></filter><filter x="-.083" y="-.187" width="1.166" height="1.373" id="filter1661" color-interpolation-filters="sRGB"><feGaussianBlur stdDeviation=".512" id="feGaussianBlur1659"/></filter><filter x="-.083" y="-.187" width="1.166" height="1.373" id="filter1665" color-interpolation-filters="sRGB"><feGaussianBlur stdDeviation=".512" id="feGaussianBlur1663"/></filter><filter x="-.083" y="-.187" width="1.166" height="1.373" id="filter1669" color-interpolation-filters="sRGB"><feGaussianBlur stdDeviation=".512" id="feGaussianBlur1667"/></filter><filter x="-.235" y="-.129" width="1.47" height="1.259" id="filter3815-8" color-interpolation-filters="sRGB"><feGaussianBlur stdDeviation=".944" id="feGaussianBlur3817-8"/></filter><filter x="-.235" y="-.129" width="1.47" height="1.259" id="filter1675" color-interpolation-filters="sRGB"><feGaussianBlur stdDeviation=".944" id="feGaussianBlur1673"/></filter><filter x="-.235" y="-.129" width="1.47" height="1.259" id="filter1679" color-interpolation-filters="sRGB"><feGaussianBlur stdDeviation=".944" id="feGaussianBlur1677"/></filter><filter x="-.178" y="-.109" width="1.357" height="1.219" id="filter3760-2" color-interpolation-filters="sRGB"><feGaussianBlur stdDeviation="1.441" id="feGaussianBlur3762-3"/></filter><filter x="-.096" y="-.115" width="1.191" height="1.229" id="filter3744-6" color-interpolation-filters="sRGB"><feGaussianBlur stdDeviation="2.675" id="feGaussianBlur3746-5"/></filter><linearGradient xlink:href="#linearGradient3852" id="linearGradient3320" gradientUnits="userSpaceOnUse" x1="-304.707" y1="391.269" x2="-291.366" y2="384.459" gradientTransform="matrix(-.72356 -.99572 .88876 -.74463 135.063 78.843)"/><filter x="-1.067" y="-.052" width="3.134" height="1.104" id="filter3824-1" color-interpolation-filters="sRGB"><feGaussianBlur stdDeviation=".723" id="feGaussianBlur3826-0"/></filter><filter x="-1.067" y="-.052" width="3.134" height="1.104" id="filter1693" color-interpolation-filters="sRGB"><feGaussianBlur stdDeviation=".723" id="feGaussianBlur1691"/></filter><filter x="-.206" y="-.336" width="1.413" height="1.671" id="filter3764-0" color-interpolation-filters="sRGB"><feGaussianBlur stdDeviation="2.787" id="feGaussianBlur3766-2"/></filter><filter x="-.083" y="-.187" width="1.166" height="1.373" id="filter1699" color-interpolation-filters="sRGB"><feGaussianBlur stdDeviation=".512" id="feGaussianBlur1697"/></filter><filter x="-.178" y="-.413" width="1.357" height="1.825" id="filter3882-6" color-interpolation-filters="sRGB"><feGaussianBlur stdDeviation=".19" id="feGaussianBlur3884-9"/></filter><filter x="-.083" y="-.187" width="1.166" height="1.373" id="filter1705" color-interpolation-filters="sRGB"><feGaussianBlur stdDeviation=".512" id="feGaussianBlur1703"/></filter><filter id="filter3884-0" color-interpolation-filters="sRGB"><feGaussianBlur id="feGaussianBlur3886-4" result="result6" stdDeviation="1.5"/><feComposite in2="result6" operator="atop" in="SourceGraphic" result="result8" id="feComposite3888-8"/><feComposite in2="SourceAlpha" operator="atop" in="result8" result="result9" id="feComposite3890-5"/></filter><filter x="-.098" y="-.289" width="1.195" height="1.579" id="filter3814-1" color-interpolation-filters="sRGB"><feGaussianBlur stdDeviation="1.163" id="feGaussianBlur3816-5"/></filter><filter id="filter3788-7" color-interpolation-filters="sRGB"><feGaussianBlur stdDeviation=".491" id="feGaussianBlur3790-8"/></filter><filter id="filter3860-6" color-interpolation-filters="sRGB"><feGaussianBlur id="feGaussianBlur3862-8" result="result6" stdDeviation="1.5"/><feComposite in2="result6" operator="atop" in="SourceGraphic" result="result8" id="feComposite3864-9"/><feComposite in2="SourceAlpha" operator="atop" in="result8" result="result9" id="feComposite3866-0"/></filter><filter x="-.083" y="-.187" width="1.166" height="1.373" id="filter1721" color-interpolation-filters="sRGB"><feGaussianBlur stdDeviation=".512" id="feGaussianBlur1719"/></filter><filter x="-.083" y="-.187" width="1.166" height="1.373" id="filter1725" color-interpolation-filters="sRGB"><feGaussianBlur stdDeviation=".512" id="feGaussianBlur1723"/></filter><filter id="filter3855-1" color-interpolation-filters="sRGB"><feGaussianBlur id="feGaussianBlur3857-2" stdDeviation="7.152" result="result8"/><feOffset id="feOffset3859-5" dx="-1.163" dy="-.581" result="result11"/><feComposite in2="result11" operator="in" in="SourceGraphic" result="result6" id="feComposite3861-0"/><feFlood id="feFlood3863-3" result="result10" flood-opacity="1" flood-color="#000"/><feBlend in2="result10" in="result6" result="result12" id="feBlend3865-7"/><feComposite in2="SourceGraphic" operator="in" result="result2" id="feComposite3867-0"/></filter><filter id="filter10361-4" color-interpolation-filters="sRGB"><feGaussianBlur result="result8" stdDeviation="2.951" id="feGaussianBlur10363-1"/><feOffset result="result11" dy=".602" dx="-1.205" id="feOffset10365-7"/><feComposite in2="result11" operator="in" in="SourceGraphic" result="result6" id="feComposite10367-1"/><feFlood flood-color="#000" flood-opacity=".805" result="result10" id="feFlood10369-3"/><feBlend in2="result10" in="result6" result="result12" id="feBlend10371-7"/><feComposite in2="SourceGraphic" operator="in" result="result2" id="feComposite10373-9"/></filter><filter id="filter1753" color-interpolation-filters="sRGB"><feGaussianBlur id="feGaussianBlur1741" stdDeviation="7.152" result="result8"/><feOffset id="feOffset1743" dx="-1.163" dy="-.581" result="result11"/><feComposite in2="result11" operator="in" in="SourceGraphic" result="result6" id="feComposite1745"/><feFlood id="feFlood1747" result="result10" flood-opacity="1" flood-color="#000"/><feBlend in2="result10" in="result6" result="result12" id="feBlend1749"/><feComposite in2="SourceGraphic" operator="in" result="result2" id="feComposite1751"/></filter></defs><g transform="translate(0 200)" id="layer2"><g transform="matrix(.8236 0 0 .8236 -191.315 -53.095)" id="g2241"><path d="M751.64 157.02c5.994-9.193 13.422-9.921 13.422-9.921 3.197.4 2.132 3.863 2.132 3.863s-9.436 3.175-13.7 9.836z" id="path4231" class="fnbvwWKy_11" opacity="0.75" fill="none" stroke="rgb(247, 0, 0)" stroke-width="1.10504"/><path d="M768.859 262.2c23.18-5.86 16.053-35.436 16.053-35.436s3.134-46.758-29.356-71.696l14.752 23.526 10.607 36.714-4.796 36.502-8.592 7.46z" id="path4233" class="fnbvwWKy_12" opacity="0.75" fill="none" stroke="rgb(195, 0, 0)" stroke-width="1.10504"/><path d="M731.43 275.249c1.56-53.665-8.465-142.271-8.465-142.271l20.515-3.33s12.227 137.447 8.082 144.983c0 7.48-20.132 9.592-20.132.618z" id="path4235" class="fnbvwWKy_13" opacity="0.75" fill="none" stroke="rgb(138, 2, 12)" stroke-width="1.10504"/><path d="M210.548 180.569l-10.747 26.651-5.158 29.661 46.855 74.797 31.38-21.924-9.457-79.524-16.334-27.942-9.028 15.475-1.29 15.476-14.185-2.15-2.579-21.923z" id="path4237" transform="translate(611.779 60.224) scale(.61982)" class="fnbvwWKy_14" opacity="0.75" fill="none" stroke="rgb(0, 0, 0)" stroke-width="1.78283" filter="url(&quot;#filter3855-1&quot;)"/><path d="M756.044 161.174c7.449-8.059 15.33-6.77 15.33-6.77 3.085.928.189 5.164.189 5.164s-8.866.31-14.184 6.163z" id="path4239" class="fnbvwWKy_15" opacity="0.75" fill="none" stroke="rgb(247, 0, 0)" stroke-width="1.10504"/><path d="M236.34 214.098l-13.756-1.489-2.149-24.303-8.597-15.475 2.364.215s2.15-4.298.43-12.466l-1.505-7.093 7.953-2.364h8.597l12.896 16.98 5.588 14.185-8.812 11.822z" id="path4241" transform="translate(611.779 60.224) scale(.61982)" class="fnbvwWKy_16" opacity="0.75" fill="none" stroke-width="1.78283" filter="url(&quot;#filter10361-4&quot;)"/><path d="M733.801 196.097c-11.061 2.333-33.087-18.913-40.327-33.43l12.305 8.145c5.862-6.394 12.466-4.132 9.002-36.372 0 0 .145 26.518 27.5 39.836z" id="path4243" class="fnbvwWKy_17" opacity="0.75" fill="none" stroke="rgb(0, 0, 0)" stroke-width="1.10504"/><path d="M747.247 157.787c-4.46-6.84-52.059 2.878-76.918-1.29-2.436-.408-5.5-7.17-8.089-10.504-1.54-1.983-5.914-.802-4.678 1.597 1.159 2.248 6.075 9.014 5.234 9.003-5.089-.07-8.213 1.812-8.213 1.812-2.09 2.794-1.19 5.995.609 5.928 0 0 3.655-1.773 9.498-1.664 32.628.605 75.134-3.243 82.157-.087z" id="path4227" class="fnbvwWKy_18" opacity="0.75" fill="none" stroke="rgb(247, 0, 0)" stroke-width="1.10504"/><path d="M673.691 187.941c.626 24.419 7.514 70.751 7.514 70.751 3.443 5.166 17.844 1.722 19.566-.626 0 0-9.235-45.08-9.235-71.064l.313-.313z" id="path4247" class="fnbvwWKy_19" opacity="0.75" fill="none" stroke="rgb(3, 68, 132)" stroke-width="1.10504"/><path d="M95.774 224.415l35.25 69.638 99.728 15.905-35.25-79.095 8.598-39.977-7.737 3.009-5.804.644-3.439-2.364-3.868-6.878-2.716 3.072-7.816 1.227-5.373-2.794-3.87-4.729-1.719-5.803.43-6.448-9.027 6.878-4.298 8.382-1.29 10.747-9.457 21.278 6.878 19.774-8.168 3.439-12.036-8.382-26.652-10.747z" id="path4249" transform="translate(611.779 60.224) scale(.61982)" class="fnbvwWKy_20" opacity="0.75" fill="none" stroke="rgb(0, 0, 0)" stroke-width="1.78283" filter="url(&quot;#filter3855-1&quot;)"/><path d="M715.809 147.284s-11.012-3.15-20.37-3.557c-9.516-.414-27.59-2.178-37.755-.376.138-1.918-.795-3.79-.795-3.79 2.767-.665 7.91-1.29 7.98-1.893.07-.602-5.237-.806-7.63-3.727-.6-1.208-.159-2.61 1.442-3.388.954-.498 1.997 1.387 4.8 2.324 2.899.97 5.821 1.315 8.428.878 2.606-.438 15.406-3.813 43.582-.996z" id="path4261" class="fnbvwWKy_21" fill="none" stroke="rgb(3, 68, 132)" stroke-width="1.10504"/><path d="M74.27 117.498c-.726 3.919 9.317 7.506 14.821 5.893-6.23-.341-12.765-3.267-14.821-5.893z" id="path4289" transform="translate(611.779 60.224) scale(.61982)" class="fnbvwWKy_22" fill="none" fill-rule="evenodd" stroke-width="1.78283" filter="url(&quot;#filter3846-1&quot;)"/><path d="M-296.429 382.594c2.31.526 9.943 2.416 15.715 2.857-5.426-2.127-12.944-4.07-15.715-2.857z" transform="matrix(.72537 -.05554 -.04732 -.61801 891.078 360.617)" id="path4293" class="fnbvwWKy_23" fill="none" fill-rule="evenodd" stroke-width="1.64562" filter="url(&quot;#filter3846-1&quot;)"/><path d="M92.564 162.871c5.303-6.818 3.535-35.102 3.535-35.102s-2.778-22.729-1.263-32.83l30.305-1.01 4.293-.253 5.304 73.489-12.88-2.778-6.818-6.566-13.638 1.515-7.07 6.313z" id="path4263" transform="translate(611.779 60.224) scale(.61982)" class="fnbvwWKy_24" opacity="0.75" fill="none" stroke="rgb(3, 68, 132)" stroke-width="1.78283" filter="url(&quot;#filter3860-6&quot;)"/><path d="M691.25 118.485a3.126 9.933 88.606 1 1-19.86.473 3.126 9.933 88.606 1 1 19.86-.473z" id="path4265" class="fnbvwWKy_25" fill="none" fill-rule="evenodd" stroke="rgb(3, 68, 135)" stroke-width="1.10504" stroke-linecap="round" stroke-linejoin="round"/><path d="M685.9 202.029c6.262-.626 11.897-7.513 11.897-7.513l.287-4 6.42-14.168-1.467-6.025-4.068-4.6-11.954-3.542-3.32-4.206h-8.855l-6.64 8.19-3.321 8.191 1.55 14.832 6.74 8.26z" id="path4267" class="fnbvwWKy_26" opacity="0.75" fill="none" stroke-width="1.10504"/><path d="M-261.003 446.54c1.894-3.85 10-3.987 10-3.987 8.171.159 14.217-16.02 14.217-16.02l-17.586-12.16-10.94-1.659-11.86 10.864s.455 24.034 16.17 22.962z" transform="matrix(.61982 0 0 .50449 840.864 -50.836)" id="path4273" class="fnbvwWKy_27" fill="none" stroke-width="1.97614" filter="url(&quot;#filter3788-7&quot;)"/><path d="M96.366 167.143c11.742-9.373 27.308-1.534 27.308-1.534l-9.076-8.614-8.929.357-8.214 4.643z" id="path4275" transform="translate(611.779 60.224) scale(.61982)" class="fnbvwWKy_28" fill="none" stroke-width="1.78283" filter="url(&quot;#filter3814-1&quot;)"/><path d="M107.021 275.693s-16.92-25.254-18.94-37.123c0 0-12.374-18.688-6.313-34.85-3.536-20.961 1.515-30.558 11.364-41.417l2.348 2.129s-22.857 18.214-.714 58.928l31.378 64.61 78.861 28.401 45.688 4.368 2.396 5.46c-22.353 9.886-50.598 2.464-50.598 2.464-21.923-7.308-48.272-12.661-59.448-18.68-25.362-15.044-36.022-34.29-36.022-34.29z" id="path4277" transform="translate(611.779 60.224) scale(.61982)" class="fnbvwWKy_29" opacity="0.75" fill="none" stroke="rgb(3, 68, 132)" stroke-width="1.78283" filter="url(&quot;#filter3884-0&quot;)"/><path d="M743.242 129.862c.11-6.31-5.423-20.92-9.85-23.133-6.249-4.284-2.08-12.709.885-17.709 0 0-2.214-5.423-7.195-4.206-6.321 7.161-5.512 12.973-6.52 17.104-.6 2.46-1.891 1.65-1.891-.944 0 0 .332-13.393 4.205-18.927 0 0-1.992-4.649-7.858-3.431-7.882 10.637-4.456 30.185-8.08 23.907 0 0-6.973-15.827-11.068-18.262l-5.483 5.572c1.55 2.877 8.594 13.895 6.59 15.9 0 0-18.816 21.251-3.32 58.22l6.862 2.877 3.984 6.42 5.756-6.863c8.56-8.65 5.096-17.559 4.912-29.787-.47-11.427 7.789-6.33 7.945-3.512" id="path4279" class="fnbvwWKy_30" opacity="0.75" fill="none" stroke="rgb(249, 1, 19)" stroke-width="1.10504"/><path d="M737.62 192.865c2.45-4.898 4.333-12.058 4.333-12.058l-2.449-1.13-4.333 11.116z" id="path4364" class="fnbvwWKy_31" fill="none" stroke="rgb(124, 0, 0)" stroke-width="1.10504"/><path d="M733.852 197.01c7.725-1.696 3.768-10.362 3.768-10.362z" id="path4368" class="fnbvwWKy_32" fill="none" stroke="rgb(124, 0, 0)" stroke-width="1.10504"/><path d="M712.563 165.17l.565 7.913 5.087 4.145 6.594-2.45 1.884 1.885 2.45 2.826 3.014 1.507 7.724-3.58 3.956-7.536-1.13-4.898-10.739-7.348-10.55.565z" id="path4245" class="fnbvwWKy_33" opacity="0.75" fill="none" stroke="rgb(0, 0, 0)" stroke-width="1.10504"/><path d="M710.842 169.613c0 4.13 1.731 8.127 1.731 8.127 2.384 5.172 11.77 6.264 12.39-2.532l-1.998 1.333-6.795-.533-4.13-5.462z" id="path4281" class="fnbvwWKy_34" fill="none" stroke-width="1.10504"/><path d="M740.001 177.936c-2.316 3.419-2.706 4-2.706 4l-.666.8c-1.09 4.187-14.96 3.873-11.457-8.087l.907 2.224 5.924 3.369 6.483-2.207z" id="path4283" class="fnbvwWKy_35" fill="none" stroke-width="1.10504"/><path d="M657.947 141.407a1.846.948 76.918 1 1-1.885.255 1.846.948 76.918 1 1 1.885-.255z" id="path4285" class="fnbvwWKy_36" fill="none" fill-rule="evenodd" stroke="rgb(3, 68, 132)" stroke-width="1.10504" stroke-linecap="round" stroke-linejoin="round"/><path d="M-293.482 370.719c-.726 3.919 9.317 7.506 14.821 5.893-6.23-.341-12.765-3.267-14.821-5.893z" transform="matrix(.7509 0 0 .67044 879.22 -117.205)" id="path4287" class="fnbvwWKy_37" fill="none" fill-rule="evenodd" stroke-width="1.55743" filter="url(&quot;#filter3846-1&quot;)"/><path d="M-295.732 370.665s1.451-1.087 2.556-.922c0 0-1.171-.792-2.556.922z" transform="matrix(.6514 0 0 .6705 850.4 -116.835)" id="path4291" class="fnbvwWKy_38" fill="none" stroke-width="1.67208" filter="url(&quot;#filter3882-6&quot;)"/><path d="M-294.57 381.367c-.727 3.919 9.317 7.506 14.82 5.893-6.229-.341-12.764-3.267-14.82-5.893z" transform="matrix(.46612 -.35332 .29343 .56125 683.263 -177.193)" id="path4295" class="fnbvwWKy_39" fill="none" fill-rule="evenodd" stroke-width="1.82836" filter="url(&quot;#filter3846-1&quot;)"/><path d="M-257.541 454.39c-6.598-.212-16.873 4.086-14.47 12.25 6.147 9.886 21.706 9.49 30.063 2.75 5.227-5.46-.823-13.68-7.312-14.156a26.517 26.517 0 0 0-8.281-.844z" transform="matrix(.7428 0 0 .7612 873.306 -166.047)" id="path4297" class="fnbvwWKy_40" fill="none" fill-rule="evenodd" stroke-width="1.46958" filter="url(&quot;#filter3764-0&quot;)"/><path d="M692.173 187.325a9.164 4.633 0 0 1-18.328 0 9.164 4.633 0 1 1 18.328 0z" id="path4299" class="fnbvwWKy_41" fill="none" fill-rule="evenodd" stroke="rgb(3, 68, 132)" stroke-width="1.10504" stroke-linecap="round" stroke-linejoin="round"/><path d="M-293.482 370.719c-.726 3.919 9.317 7.506 14.821 5.893-6.23-.341-12.765-3.267-14.821-5.893z" transform="matrix(.2678 1.39982 -.62635 .47714 997.432 359.613)" id="path4301" class="fnbvwWKy_42" fill="none" fill-rule="evenodd" stroke-width="1.10253" filter="url(&quot;#filter3824-1&quot;)"/><path d="M-293.482 370.719c-.726 3.919 9.317 7.506 14.821 5.893-6.23-.341-12.765-3.267-14.821-5.893z" transform="matrix(-.2678 1.39982 .62635 .47714 361.038 370.238)" id="path4303" class="fnbvwWKy_43" fill="none" fill-rule="evenodd" stroke-width="1.10253" filter="url(&quot;#filter3824-1&quot;)"/><path d="M692.269 85.714a1.862 3.626 48.622 1 1 2.196 3.023 1.862 3.626 48.622 1 1-2.196-3.023z" id="path4305" class="fnbvwWKy_44" fill="none" fill-rule="evenodd" stroke="url(&quot;#linearGradient3320&quot;)" stroke-width="1.10504" stroke-linecap="round" stroke-linejoin="round"/><path d="M703.611 217.744l-1.35-7.69c-.105-.517.002-1.353.122-.518z" id="path4307" class="fnbvwWKy_45" fill="none" stroke="rgb(0, 0, 0)" stroke-width="1.10504"/><path d="M166.567 72.257c-18.668 0-33.813 19.408-33.813 43.375a54.9 54.9 0 0 0 1.469 12.594 55.984 55.984 0 0 1-.469-7.031c0-23.968 15.145-43.375 33.813-43.375 15.167 0 28.001 12.803 32.281 30.469-2.726-20.458-16.57-36.032-33.281-36.032z" id="path4309" transform="translate(611.779 60.224) scale(.61982)" class="fnbvwWKy_46" fill="none" fill-rule="evenodd" stroke-width="1.78283" filter="url(&quot;#filter3744-6&quot;)"/><path d="M166.027 136.995c-4.286-31.786 11.071-27.857 13.571-19.286-1.563-26.825-31.768-5.03-13.571 19.286z" id="path4311" transform="translate(611.779 60.224) scale(.61982)" class="fnbvwWKy_47" fill="none" stroke-width="1.78283" filter="url(&quot;#filter3760-2&quot;)"/><path d="M-231.071 301.29c5.892 7.68 9.464 16.965 9.464 16.965l.178.536z" transform="matrix(.7481 0 0 .7481 869.664 -138.299)" id="path4313" class="fnbvwWKy_48" fill="none" stroke-width="1.47714" filter="url(&quot;#filter3815-8&quot;)"/><path d="M-204.93 293.388c5.892 7.678 9.463 16.964 9.463 16.964l.179.536z" transform="matrix(-1.0792 .23691 .23691 1.0792 430.588 -189.162)" id="path4315" class="fnbvwWKy_49" fill="none" stroke-width="1.00013" filter="url(&quot;#filter3815-8&quot;)"/><path d="M-204.93 293.388c5.892 7.678 9.463 16.964 9.463 16.964l.179.536z" transform="scale(-.77537) rotate(51.387 -131.75 -679.77)" id="path4317" class="fnbvwWKy_50" fill="none" stroke-width="1.42517" filter="url(&quot;#filter3815-8&quot;)"/><path d="M723.102 218.665c-2.599-3.471-1.379-7.298 2.707-1.195 4.007 5.986 7.824-.931 9.312-1.34l.317 2.449-3.465 3.715s.928.513 4.508 1.455c.945-.721 4.105 5.413.813 2.28 0 0-8.03-2.937-8.219-1.241 0 0 5.994 6.973 12.775 7.156l-.614 1.907s-6.36-2.468-1.952 1.16l-1.063 1.342s-6.976-9.522-.302 3.076c0 0 7.425 1.268 7.546 3.142.051.802 1.418 2.971.147 2.325-9.578-4.865-5.429.075-4.147 3.77.327.945-1.865-1.303-2.153-.253-.31-2.467-10.01-19.618-12.199-21.118-2.19-1.499-2.144-3.173-1.508 5.119l-1.58-.396c-.282 12.447.543-9.713-.923-13.353z" id="path4319" class="fnbvwWKy_51" fill="none" stroke="rgb(128, 128, 128)" stroke-width="1.10504"/><path d="M697.972 239.64c3.953-6.255 9.498-6.628 7.768-9.709-1.8-3.205.29-7.004 2.573-3.593 2.284 3.41 2.858 3.157 4.084 3.812.077.04-.696-2.536-.266-2.652.215-.059.464-1.1 1.004-.56.54.541 1.37 2.665 1.683 2.543 1.25-.487 2.733-1.198 3.817-2.012 2.168-1.629-1.187.256-1.072.573.902 2.49-2.01 3.338-1.2 3.486 3.243.593 6.925.174 10.683-.878l6.041 4.291-9.567-.765s10.205.8 14.05.01l1.33 3.178c-4.334-2.637-19.855-3.032-19.855-3.032s-7.846-1.875-8.034-.18c0 0 8.828 6.61 15.608 6.794l.958 2.715s-6.994-2.28-4.281 3.987l-2.005-.92c0-4.71-8.204-9.498-12.6-4.835 0 0-.555-1.152-2.32-.248-.31-2.467 3.83-4.356 1.106-7.135-.68-.692-3.595 1.873-6.29 7.9l-4.911-7.104z" id="path4321" class="fnbvwWKy_52" fill="none" stroke="rgb(128, 128, 128)" stroke-width="1.10504"/><path d="M701.733 184.754c-5.328 15.188-7.932 12.415-23.785 15.612 8.897 8.898 20.107 11.759 27.834 28.811l2.661-2.003c-15.11-26.062-6.71-42.42-6.71-42.42zm-4.842 19.68c.199.009.463.234.678.813l6.024 14.934-6.857-14.527c-.363-.629-.176-1.232.155-1.22zm-6.644 5.81c.04.007.128.06.29.195l6.412 5.249-6.16-4.785c-.318-.234-.66-.676-.542-.658zm7.458 4.3c.102.01.221.097.348.291l4.63 6.78-5.095-6.354c-.246-.266-.176-.625.02-.697a.217.217 0 0 1 .098-.02zm3.195 2.073c.09-.02.208.03.31.233l2.848 5.326-3.216-5.055c-.158-.214-.09-.467.059-.504z" id="path4323" class="fnbvwWKy_53" fill="none" stroke-width="1.10504"/><path d="M714.794 243.7c1.798-5.226 3.2-12.02 1.47-15.101-1.8-3.205-1.512-9.696 2.574-3.593 4.007 5.986 11.216 6.416 18.733 4.312l2.577 2.826-6.103.7s3.943 2.398 7.522 3.34l3.194 4.378C740.428 237.924 729.57 233 729.57 233s-5.582-.676-5.77 1.02c0 0 4.299 5.277 11.079 5.46l2.024 2.85s-5.796-2.28-3.083 3.986l-2.005-.92c0-4.71-6.599-9.333-1.809.627 0 0-.422-1.153-2.186-.248-.31-2.467-4.735-10.386-6.924-11.886-2.19-1.5-2.144 3.421-1.509 11.713z" id="path4325" class="fnbvwWKy_54" fill="none" stroke="rgb(128, 128, 128)" stroke-width="1.10504"/><path d="M705.53 183.418l-21.132 19.06 6.45 4.706s20.454 10.296 25.219 20.086l2.17-2.673c-4.95-8.081-12.707-41.179-12.707-41.179zm-1.763 20.183c.198-.023.474.158.775.697l8.251 13.83-8.987-13.307c-.455-.565-.368-1.181-.039-1.22zm6.043 3.855c.031.014.086.121.155.348l2.46 7.922-2.498-7.399c-.114-.309-.174-.759-.136-.852.006-.015.009-.024.02-.02zm-12.687 1.162c.04 0 .149.026.33.135l7.147 4.223-6.837-3.797c-.35-.182-.76-.56-.64-.561zm6.915 1.801c.099.012.23.08.368.232l5.617 6.005-6.023-5.5c-.342-.272-.257-.769.038-.737zm2.77.968c.08.006.172.075.271.214l3.622 4.823-3.951-4.494c-.19-.188-.16-.464-.02-.523a.212.212 0 0 1 .077-.02zm2.596 5.54c.037.015.101.086.232.252l5.191 6.489-5.036-5.985c-.262-.296-.5-.798-.387-.756zm4.513.736c.023.015.056.087.116.213l2.402 4.94-2.383-4.591c-.126-.23-.202-.606-.135-.562zm-2.576.388c.009-.035.058-.002.174.155l3.08 4.106-3.022-3.797c-.133-.157-.247-.407-.232-.464z" id="path4327" class="fnbvwWKy_55" fill="none" stroke-width="1.10504"/><path d="M704.678 178.595c-3.464 7.46-7.826 17.161-7.826 17.161l-.023 3.486s21.13 11.137 26.89 20.377c0-1.318 1.588-2.692 1.588-2.692-5.764-7.522-19.83-20.48-20.629-38.332zm-3.08 18.846c.236.021.51.116.794.31l5.888 5.811-7.05-5.133c-.716-.463-.341-1.047.368-.988zm7.438.078c.193-.044.477.115.833.62l9.646 12.9-10.324-12.3c-.512-.515-.479-1.147-.155-1.22zm-3.41.95c.04.008.136.069.291.212l6.14 5.598-5.907-5.114c-.306-.25-.641-.721-.523-.697zm.35 4.473c.04.003.12.068.29.194l6.682 4.92-6.392-4.475c-.33-.217-.7-.65-.58-.639zm4.047 1.337c.1 0 .216.056.369.194l6.217 5.384-6.547-4.842c-.368-.234-.335-.737-.038-.736zm2.79.678c.02-.01.05-.003.077 0 .072.009.17.061.272.174l4.106 4.436-4.397-4.068c-.219-.175-.21-.486-.058-.542z" id="path4329" class="fnbvwWKy_56" fill="none" stroke-width="1.10504"/><path d="M702.392 180.435c-5.225 2.215-4.937 14.99-15.074 16.218-2.748.335-9.428-1.904-9.428-1.904s-2.64-.574-4.9.368c0 0 15.39 5.049 24.928 15.38 3.926 4.252 9.833 8.595 14.256 17.858l1.607-.252-.27-.27c-1.333-4.264-12.262-21.85-12.262-21.85l-3.99-12.783s4.793-11.992 5.133-12.765zm-4.339 27.485c.16-.009.445.176.794.6 0 0 6.476 7.447 12.804 17.704-7.194-11.19-12.134-16.17-13.133-17.103-.654-.654-.731-1.184-.465-1.2zm3.467 2.383c.133 0 .353.154.62.523 0 0 4.95 6.493 9.646 15.282-5.364-9.603-9.179-13.977-9.956-14.798-.506-.573-.53-1.007-.31-1.007zm4.63 5.268c.085.003.227.104.387.349 0 0 2.976 4.326 5.733 10.13-3.161-6.349-5.47-9.287-5.946-9.84-.309-.384-.317-.646-.174-.639z" id="path4332" class="fnbvwWKy_57" fill="none" stroke-width="1.10504"/><path d="M758.4 223.078c1.295-3.763 2.305-8.655 1.059-10.874-1.296-2.307-1.089-6.982 1.853-2.587 2.886 4.31 8.076 4.62 13.49 3.105l1.855 2.035-4.394.504s2.839 1.727 5.416 2.405l2.3 3.153c-3.12-1.9-10.94-5.446-10.94-5.446s-4.018-.486-4.154.735c0 0 5.627 4.066 10.51 4.199l1.856 2.717s-7.104-2.574-5.15 1.938c.797 1.804 1.32 2.861 1.65 4.452 0 0 1.827 4.366.557 5.017-.224-1.776-9.937-17.337-11.514-18.417-.761-.521-.185 3.234.667 7.93.11.603 10.71 8.957 10.864 9.577 1.174 4.714-10.306-6.55-10.195-5.957.759 4.079 1.526 8.234 1.707 10.606l-.636.983-1.457-6.663s-3.364 2.565-5.629 6.03l-.95-1.49 6.02-7.095-2.082-9.52s-3.936 10.36-3.936 14.756l-1.756-1.483s2.056-6.88 2.989-10.61z" id="path4340" class="fnbvwWKy_58" fill="none" stroke="rgb(128, 128, 128)" stroke-width="1.10504"/><path d="M765.518 176.149c-5.667 3.122-12.945 7.247-12.945 7.247l-1.636 2.2s8.226 16.892 7.582 25.432c.614-.837 2.26-.97 2.26-.97-.159-7.451-3.055-22.213 4.739-33.91zM754.8 186.672c.14.123.27.31.36.566l1.033 6.425-2.086-6.535c-.238-.627.271-.823.693-.456zm4.682 3.508c.144.063.25.295.24.78l.121 12.67-.83-12.604c-.085-.564.23-.95.47-.846zm-2.603-.983c.02.023.053.107.085.27l1.292 6.407-1.37-5.992c-.077-.3-.07-.755-.01-.685zm-1.86 3c.023.021.046.1.094.258l1.952 6.229-1.975-5.81c-.108-.292-.142-.74-.071-.677zm1.947 2.73c.062.047.11.136.143.295l1.44 6.307-1.901-6.116c-.125-.32.13-.624.318-.485zm1.454 1.728c.017.006.033.02.049.036.042.039.08.118.09.237l.543 4.723-.898-4.625c-.057-.213.093-.406.216-.37z" id="path4342" class="fnbvwWKy_59" fill="none" stroke-width="1.10504"/><path d="M742.777 200.463c-.422.056-1.032.565-1.86 1.801-1.691 2.528-4.173 3.679-7.03 3.894.238.588.53 1.186.833 1.782 1.153-.015 2.555.1 2.634.813 0 0-.645.446-1.608 1.027.398.667.816 1.322 1.26 1.976 1.135-1.639 2.046-2.81 2.44-3.08.648-.444.306 2.268-.33 5.966.44.564.863 1.122 1.298 1.646l.717-3.215s1.15 3.048 2.208 6.527a79.607 79.607 0 0 0 2.189 2.286c-.596-2.076-1.275-4.44-1.705-6.16-1.295-3.762-2.292-8.647-1.046-10.866.932-1.659 1.079-4.54 0-4.397zm2.925 22.062l-1.182 1.53c.32 1.438.543 2.77.543 3.777l1.762-1.491s-.513-1.705-1.123-3.816zm-3.196 4.145l-.968 1.278c.868.92 1.785 2.007 2.576 3.216l.949-1.472z" id="path4344" class="fnbvwWKy_60" fill="none" stroke="rgb(128, 128, 128)" stroke-width="1.10504"/><path d="M764.673 180.76c-11.043 3.53-10.58.83-19.3-6.895-1.252 8.977 1.97 16.663-4.477 28.507l2.306.66c8.422-20 21.47-22.272 21.47-22.272zm-13.414 5.76c.082.117.066.368-.174.742l-5.969 9.946 5.374-10.248c.204-.481.632-.636.769-.44zm-5.558-.031c.014.026.02.099.014.25l-.9 4.7.742-4.353c-.003-.284.102-.673.143-.597zm.1 4.887c.038.063.04.17-.015.327l-1.887 5.604 1.44-5.686c.046-.258.283-.373.41-.292.02.012.04.026.052.048zm.195 2.737c.052.042.073.132.001.28l-1.826 3.948 1.51-4.043c.055-.184.23-.254.315-.185z" id="path4346" class="fnbvwWKy_61" fill="none" stroke-width="1.10504"/><path d="M753.544 218.682c-1.295-3.763-2.305-8.655-1.06-10.874 1.297-2.308 1.09-6.982-1.852-2.587-2.886 4.31-8.077 4.62-13.49 3.105l-1.856 2.035 4.395.504s-2.839 1.727-5.417 2.405l-.604 2.776c3.12-1.9 9.244-5.069 9.244-5.069s4.019-.486 4.155.735c0 0-3.096 3.8-7.978 3.932l-1.458 2.051s4.173-1.642 2.22 2.87l1.444-.661c0-3.392 4.752-6.721 1.302.451 0 0 .304-.83 1.575-.178.224-1.777 3.41-7.48 4.986-8.56 1.577-1.079-.854 5.262-1.312 11.232l1.702 1.783 1.434-7.014s1.805 6.096 1.805 10.492l2.022 2.114s-.324-7.812-1.257-11.542z" id="path4348" class="fnbvwWKy_62" fill="none" stroke="rgb(128, 128, 128)" stroke-width="1.10504"/><path d="M744.288 170.13s5.8 9.166 6.334 18.576c.22 3.874 2.743 9.398 1.085 16.077l.949.542-.02-.252c1.126-2.774 5.403-13.888 5.403-13.888l1.317-9.646s5.887-6.234 6.392-6.489c-3.647-1.08-8.932 5.66-14.701 1.976-1.565-.997-4.068-4.997-4.068-4.997s-1.12-1.423-2.692-1.898zm7.593 15.729c.316.041.623.347.523.813l.135 15.515c0-9.792-1.2-15.592-1.2-15.592-.1-.567.226-.778.542-.736zm2.13 1.82a.255.255 0 0 1 .155 0c.212.058.39.347.272.756l-1.22 10.73c.66-6.837.503-10.847.503-10.847-.006-.382.134-.587.29-.639zm.795 4.552c.186-.043.4.211.27.562l-1.8 9.607c1.173-6.055 1.297-9.743 1.297-9.743.015-.268.12-.4.233-.426z" id="path4350" class="fnbvwWKy_63" fill="none" stroke-width="1.10504"/><path d="M754.538 158.586a1.665 2.694 0 0 1-3.33 0 1.665 2.694 0 1 1 3.33 0z" id="path4352" class="fnbvwWKy_64" fill="none" fill-rule="evenodd" stroke="rgb(67, 109, 136)" stroke-width="1.10504" stroke-linecap="round" stroke-linejoin="round"/><path d="M758.534 163.382a1.665 2.694 0 0 1-3.33 0 1.665 2.694 0 1 1 3.33 0z" id="path4354" class="fnbvwWKy_65" fill="none" fill-rule="evenodd" stroke="rgb(67, 109, 136)" stroke-width="1.10504" stroke-linecap="round" stroke-linejoin="round"/><path d="M745.272 160.026a1.757 2.843 0 0 0 3.515 0 1.757 2.843 0 1 0-3.515 0z" id="path4356" class="fnbvwWKy_66" fill="none" fill-rule="evenodd" stroke="rgb(67, 109, 136)" stroke-width="1.10504" stroke-linecap="round" stroke-linejoin="round"/><path d="M743.816 168.062c6.418-4.226-12.992-30.836 17.375-26.61 3.34-2.496.783-5.009.783-5.009s-9.08-2.66-12.366-2.974c0 0 10.018-1.408 13.774-3.913 1.13-5.722-2.974-5.322-2.974-5.322s-12.209 4.853-19.41 5.948c-7.2 1.096-19.252 3.287-19.252 3.287l-6.399-.711s1.053 20.974-.828 29.608l1.122-1.348 6.73-3.443 10.645.47 9.078 5.634z" id="path4358" class="fnbvwWKy_67" opacity="0.75" fill="none" stroke="rgb(3, 68, 132)" stroke-width="1.10504"/><path d="M742.142 174.213c5.087 4.522-1.696 10.928-4.145 9.42z" id="path4366" class="fnbvwWKy_68" fill="none" stroke="rgb(124, 0, 0)" stroke-width="1.10504"/><path d="M750.254 152.485c-4.319.081-5.978 1.153-5.978 1.153.22.98.26 1.932.26 1.932 11.213-5.16 13.767 3.98 18.85 12.817-1.992 3.32 0 5.075 0 5.075.332 1.328-.664 2.656-.775 2.324 0 0-1.577 1.876-2.886 3.661-1.217 1.66-1.311 4.093-1.975 7.303-.454 2.194.725 12.595 1.104 8.522.379-4.073-.227-8.214 1.937-13.365.862-2.053 2.923-3.423 4.358-5.443 0 0 .45 1 2.111 3.545 1.66 2.546-.041 3.652.426 6.74.49 3.24-.364 6.764-.213 7.748.152.984 1.884 5.418 1.995 6.082.098.588-.188 2.723.446 3.99.553 1.107 2.515 3.281 2.77 3.874.664 1.55-.103 4.544.561 6.315.665 1.774 4.824 9.497 5.424 10.847.442.996.167 3.861-.35 4.416-.515.555-2.909-1.079-3.524-.988-.616.091-2.238.563-1.22 3.215 1.017 2.653 1.875 2.864 2.208 3.971.586 1.955-.53 3.197-1.337 4.649-.553.996-3.246 2.655-4.416 1.995-.463-.473.349-1.37.232-2.208-.296-2.137-.576-4.813-3.99-2.654s2.852 5.68-.775 9.297c-1.438 1.107-2.56-1.665-4.551-1.665-1.993 0-3.491-12.033-7.632-17.162-4.185-5.183-19.97-18.857-18.808-28.763 1.162-9.906 7.634-25.793 9.394-26.013.886-.111 3.05 3.329 3.545 4.319.886 1.77 1.323 16.486 2.983 14.604 0 0-.018-14.912-1.453-16.735-1.435-1.823-2.413-2.579-5.152-10.014-2.74-7.435-14.798-8.929-14.798-8.929s-8.348-1.377-14.256 4.94c-3.738 2.606-8.12 4.82-10.247 10.497a22.148 22.148 0 0 0-.58-1.975c-1.311-3.796-4.336-6.923-11.622-7.554-1.771-1.55-5.078-.659-5.52-2.208-.886-2.657-3.529-4.411-7.07-3.526-6.199-.442-8.213 3.293-8.213 3.293-11.733 12.175-6.857 23.689-6.857 23.689s-2.214 7.302 4.649 16.6c0 0-1.782 3.541-.233 7.747 2.657 7.084 4.824 15.769 8.62 19.97 3.795 4.202 3.341 4.895 4.745 6.644 14.433 17.979 30.256 11.122 48.23 20.822 0 0 36.006 22.076 51.658-12.048 2.818-8.765.067-53.236-12.028-68.49-6.96-5.931-9.149-22.347-20.047-22.856zm-73.275 6.179l2.499.155s2.659-.297 4.067.33c.916.406 2.043 3.246 3.448 3.757a20.26 20.26 0 0 0 2.828.775s1.715 1.255 2.654 1.568c1.738.58 4.837-.31 7.205 2.034 2.362 2.34 4.765 8.382 2.189 14.392-.94 2.191-5.014 7.634-5.462 11.854-.412 7.457 6.792 17.566 5.307 12.416 0 0-2.516-5.552-2.673-11.273-.133-4.873 6.668-9.933 6.005-19.099.82-2.613 3.17-7.911 6.391-8.522-1.14 3.408 1.173 8.759 4.754 10.279 4.869 2.067 7.664-1.503 8.673-2.565-4.191 1.691-13.84 2.249-10.695-8.934 4.992-8.761 15.696-7.278 18.168-6.683 2.293.553 16.014 6.864 6.876 16.096 0 0-4.013 3.794-6.863 4.524-2.523.646-4.74-2.302-6.893-4.91.46 1.095 1.053 4.53 2.4 5.53 4.508 3.34 7.833-.833 8.76.029.393.599-.173 2.097-.6 3.293-5.635 12.835-6.45 19.411-2.537 32.56 0 0 2.557 9.4 5.578 16.076 1.743 3.85 4.593 5.224 4.765 7.4.94 10.33-1.575 7.822-6.566 7.224-4.991-.597-7.336-3.937-8.62-2.653-1.217 1.217.654 4.189-1.781 2.75-5.535-3.763-9.633-1.879-10.518-3.428 0 0-1.981-8.072-7.515-4.087-2.214 2.656-3.429-.443-6.528 0-3.099.442-5.814-4.812-8.193-4.978-2.38-.166-9.347-6.755-9.956-12.067-.609-5.313-4.159-9.353-4.436-10.847-.276-1.494.37-2.298-.658-3.661-1.029-1.363-5.319-2.656-5.54-7.748 8.08-.885 26.456 12.74 23.689 8.755 0 0-6.865-9.19-24.464-13.617.222-2.103-2.432-4.217-4.978-6.43-.332-2.878-2.985-7.743-1.878-15.38 2.656-8.965 9.07-14.392 11.098-14.914z" id="path4370" class="fnbvwWKy_69" fill="none" stroke="rgb(247, 223, 163)" stroke-width="1.10504" stroke-linejoin="round"/><path d="M-296.429 382.594c2.31.526 9.943 2.416 15.715 2.857-5.426-2.127-12.944-4.07-15.715-2.857z" transform="matrix(.7918 -.44846 .38209 .6746 837.245 -260.24)" id="path4372" class="fnbvwWKy_70" fill="none" fill-rule="evenodd" stroke-width="1.31562" filter="url(&quot;#filter3846-1&quot;)"/><path d="M-296.429 382.594c2.31.526 9.943 2.416 15.715 2.857-5.426-2.127-12.944-4.07-15.715-2.857z" transform="matrix(.90741 .06825 -.05814 .77311 1040.139 -140.665)" id="path4374" class="fnbvwWKy_71" fill="none" fill-rule="evenodd" stroke-width="1.31562" filter="url(&quot;#filter3846-1&quot;)"/><path d="M773.053 157.09a1.686 2.53 0 1 1-3.372 0 1.686 2.53 0 1 1 3.372 0z" id="path4376" class="fnbvwWKy_72" opacity="0.75" fill="none" fill-rule="evenodd" stroke="rgb(124, 0, 0)" stroke-width="1.10504" stroke-linecap="round" stroke-linejoin="round"/><path d="M-296.429 382.594c2.31.526 9.943 2.416 15.715 2.857-5.426-2.127-12.944-4.07-15.715-2.857z" transform="matrix(.46993 -.3134 .26702 .40038 794.741 -95.04)" id="path4378" class="fnbvwWKy_73" fill="none" fill-rule="evenodd" stroke-width="2.11947" filter="url(&quot;#filter3846-1&quot;)"/><path d="M-296.429 382.594c2.31.526 9.943 2.416 15.715 2.857-5.426-2.127-12.944-4.07-15.715-2.857z" transform="matrix(.49316 -.2754 .23464 .42017 818.808 -84.615)" id="path4380" class="fnbvwWKy_74" fill="none" fill-rule="evenodd" stroke-width="2.11947" filter="url(&quot;#filter3846-1&quot;)"/><path d="M653.347 161.337a2.1 2.956 0 0 0 4.198 0 2.1 2.956 0 1 0-4.198 0z" id="path4382" class="fnbvwWKy_75" opacity="0.75" fill="none" fill-rule="evenodd" stroke="rgb(124, 0, 0)" stroke-width="1.10504" stroke-linecap="round" stroke-linejoin="round"/><path d="M-296.429 382.594c2.31.526 9.943 2.416 15.715 2.857-5.426-2.127-12.944-4.07-15.715-2.857z" transform="matrix(-.59533 .00247 .0021 .50722 488.069 -36.06)" id="path4386" class="fnbvwWKy_76" fill="none" fill-rule="evenodd" stroke-width="2.01094" filter="url(&quot;#filter3846-1&quot;)"/><path d="M-296.429 382.594c2.31.526 9.943 2.416 15.715 2.857-5.426-2.127-12.944-4.07-15.715-2.857z" transform="matrix(.42136 .42057 -.35833 .359 922.4 132.526)" id="path5002" class="fnbvwWKy_77" fill="none" fill-rule="evenodd" stroke-width="2.01094" filter="url(&quot;#filter3846-1&quot;)"/></g></g><style data-made-with="vivus-instant">@keyframes fnbvwWKy_draw{to{stroke-dashoffset:0}}@keyframes fnbvwWKy_fade{0%,95.65217391304348%{stroke-opacity:1}to{stroke-opacity:0}}.fnbvwWKy_0{stroke-dasharray:666 668;stroke-dashoffset:667;animation:fnbvwWKy_draw 3333ms linear 0ms forwards}.fnbvwWKy_1{stroke-dasharray:269 271;stroke-dashoffset:270;animation:fnbvwWKy_draw 3333ms linear 21ms forwards}.fnbvwWKy_2{stroke-dasharray:700 702;stroke-dashoffset:701;animation:fnbvwWKy_draw 3333ms linear 43ms forwards}.fnbvwWKy_3{stroke-dasharray:792 794;stroke-dashoffset:793;animation:fnbvwWKy_draw 3333ms linear 64ms forwards}.fnbvwWKy_4{stroke-dasharray:4856 4858;stroke-dashoffset:4857;animation:fnbvwWKy_draw 3333ms linear 86ms forwards}.fnbvwWKy_5{stroke-dasharray:119 121;stroke-dashoffset:120;animation:fnbvwWKy_draw 3333ms linear 108ms forwards}.fnbvwWKy_6{stroke-dasharray:12 14;stroke-dashoffset:13;animation:fnbvwWKy_draw 3333ms linear 129ms forwards}.fnbvwWKy_7,.fnbvwWKy_8{stroke-dasharray:4 6;stroke-dashoffset:5;animation:fnbvwWKy_draw 3333ms linear 151ms forwards}.fnbvwWKy_8{animation:fnbvwWKy_draw 3333ms linear 173ms forwards}.fnbvwWKy_9{stroke-dasharray:777 779;stroke-dashoffset:778;animation:fnbvwWKy_draw 3333ms linear 194ms forwards}.fnbvwWKy_10{stroke-dasharray:5844 5846;stroke-dashoffset:5845;animation:fnbvwWKy_draw 3333ms linear 216ms forwards}.fnbvwWKy_11{stroke-dasharray:44 46;stroke-dashoffset:45;animation:fnbvwWKy_draw 3333ms linear 238ms forwards}.fnbvwWKy_12{stroke-dasharray:242 244;stroke-dashoffset:243;animation:fnbvwWKy_draw 3333ms linear 259ms forwards}.fnbvwWKy_13{stroke-dasharray:335 337;stroke-dashoffset:336;animation:fnbvwWKy_draw 3333ms linear 281ms forwards}.fnbvwWKy_14{stroke-dasharray:381 383;stroke-dashoffset:382;animation:fnbvwWKy_draw 3333ms linear 303ms forwards}.fnbvwWKy_15{stroke-dasharray:45 47;stroke-dashoffset:46;animation:fnbvwWKy_draw 3333ms linear 324ms forwards}.fnbvwWKy_16{stroke-dasharray:167 169;stroke-dashoffset:168;animation:fnbvwWKy_draw 3333ms linear 346ms forwards}.fnbvwWKy_17{stroke-dasharray:184 186;stroke-dashoffset:185;animation:fnbvwWKy_draw 3333ms linear 367ms forwards}.fnbvwWKy_18{stroke-dasharray:222 224;stroke-dashoffset:223;animation:fnbvwWKy_draw 3333ms linear 389ms forwards}.fnbvwWKy_19{stroke-dasharray:183 185;stroke-dashoffset:184;animation:fnbvwWKy_draw 3333ms linear 411ms forwards}.fnbvwWKy_20{stroke-dasharray:502 504;stroke-dashoffset:503;animation:fnbvwWKy_draw 3333ms linear 432ms forwards}.fnbvwWKy_21{stroke-dasharray:156 158;stroke-dashoffset:157;animation:fnbvwWKy_draw 3333ms linear 454ms forwards}.fnbvwWKy_22{stroke-dasharray:34 36;stroke-dashoffset:35;animation:fnbvwWKy_draw 3333ms linear 476ms forwards}.fnbvwWKy_23{stroke-dasharray:33 35;stroke-dashoffset:34;animation:fnbvwWKy_draw 3333ms linear 497ms forwards}.fnbvwWKy_24{stroke-dasharray:227 229;stroke-dashoffset:228;animation:fnbvwWKy_draw 3333ms linear 519ms forwards}.fnbvwWKy_25{stroke-dasharray:44 46;stroke-dashoffset:45;animation:fnbvwWKy_draw 3333ms linear 541ms forwards}.fnbvwWKy_26{stroke-dasharray:132 134;stroke-dashoffset:133;animation:fnbvwWKy_draw 3333ms linear 562ms forwards}.fnbvwWKy_27{stroke-dasharray:114 116;stroke-dashoffset:115;animation:fnbvwWKy_draw 3333ms linear 584ms forwards}.fnbvwWKy_28{stroke-dasharray:65 67;stroke-dashoffset:66;animation:fnbvwWKy_draw 3333ms linear 606ms forwards}.fnbvwWKy_29{stroke-dasharray:562 564;stroke-dashoffset:563;animation:fnbvwWKy_draw 3333ms linear 627ms forwards}.fnbvwWKy_30{stroke-dasharray:314 316;stroke-dashoffset:315;animation:fnbvwWKy_draw 3333ms linear 649ms forwards}.fnbvwWKy_31{stroke-dasharray:31 33;stroke-dashoffset:32;animation:fnbvwWKy_draw 3333ms linear 670ms forwards}.fnbvwWKy_32{stroke-dasharray:24 26;stroke-dashoffset:25;animation:fnbvwWKy_draw 3333ms linear 692ms forwards}.fnbvwWKy_33{stroke-dasharray:89 91;stroke-dashoffset:90;animation:fnbvwWKy_draw 3333ms linear 714ms forwards}.fnbvwWKy_34{stroke-dasharray:44 46;stroke-dashoffset:45;animation:fnbvwWKy_draw 3333ms linear 735ms forwards}.fnbvwWKy_35{stroke-dasharray:45 47;stroke-dashoffset:46;animation:fnbvwWKy_draw 3333ms linear 757ms forwards}.fnbvwWKy_36{stroke-dasharray:10 12;stroke-dashoffset:11;animation:fnbvwWKy_draw 3333ms linear 779ms forwards}.fnbvwWKy_37{stroke-dasharray:34 36;stroke-dashoffset:35;animation:fnbvwWKy_draw 3333ms linear 800ms forwards}.fnbvwWKy_38{stroke-dasharray:6 8;stroke-dashoffset:7;animation:fnbvwWKy_draw 3333ms linear 822ms forwards}.fnbvwWKy_39{stroke-dasharray:34 36;stroke-dashoffset:35;animation:fnbvwWKy_draw 3333ms linear 844ms forwards}.fnbvwWKy_40{stroke-dasharray:84 86;stroke-dashoffset:85;animation:fnbvwWKy_draw 3333ms linear 865ms forwards}.fnbvwWKy_41{stroke-dasharray:45 47;stroke-dashoffset:46;animation:fnbvwWKy_draw 3333ms linear 887ms forwards}.fnbvwWKy_42,.fnbvwWKy_43{stroke-dasharray:34 36;stroke-dashoffset:35;animation:fnbvwWKy_draw 3333ms linear 909ms forwards}.fnbvwWKy_43{animation:fnbvwWKy_draw 3333ms linear 930ms forwards}.fnbvwWKy_44,.fnbvwWKy_45{stroke-dasharray:18 20;stroke-dashoffset:19;animation:fnbvwWKy_draw 3333ms linear 952ms forwards}.fnbvwWKy_45{animation:fnbvwWKy_draw 3333ms linear 974ms forwards}.fnbvwWKy_46{stroke-dasharray:243 245;stroke-dashoffset:244;animation:fnbvwWKy_draw 3333ms linear 995ms forwards}.fnbvwWKy_47{stroke-dasharray:94 96;stroke-dashoffset:95;animation:fnbvwWKy_draw 3333ms linear 1017ms forwards}.fnbvwWKy_48,.fnbvwWKy_49,.fnbvwWKy_50{stroke-dasharray:41 43;stroke-dashoffset:42;animation:fnbvwWKy_draw 3333ms linear 1038ms forwards}.fnbvwWKy_49,.fnbvwWKy_50{animation:fnbvwWKy_draw 3333ms linear 1060ms forwards}.fnbvwWKy_50{animation:fnbvwWKy_draw 3333ms linear 1082ms forwards}.fnbvwWKy_51{stroke-dasharray:168 170;stroke-dashoffset:169;animation:fnbvwWKy_draw 3333ms linear 1103ms forwards}.fnbvwWKy_52{stroke-dasharray:202 204;stroke-dashoffset:203;animation:fnbvwWKy_draw 3333ms linear 1125ms forwards}.fnbvwWKy_53{stroke-dasharray:203 205;stroke-dashoffset:204;animation:fnbvwWKy_draw 3333ms linear 1147ms forwards}.fnbvwWKy_54{stroke-dasharray:168 170;stroke-dashoffset:169;animation:fnbvwWKy_draw 3333ms linear 1168ms forwards}.fnbvwWKy_55{stroke-dasharray:256 258;stroke-dashoffset:257;animation:fnbvwWKy_draw 3333ms linear 1190ms forwards}.fnbvwWKy_56{stroke-dasharray:224 226;stroke-dashoffset:225;animation:fnbvwWKy_draw 3333ms linear 1212ms forwards}.fnbvwWKy_57{stroke-dasharray:254 256;stroke-dashoffset:255;animation:fnbvwWKy_draw 3333ms linear 1233ms forwards}.fnbvwWKy_58{stroke-dasharray:235 237;stroke-dashoffset:236;animation:fnbvwWKy_draw 3333ms linear 1255ms forwards}.fnbvwWKy_59{stroke-dasharray:177 179;stroke-dashoffset:178;animation:fnbvwWKy_draw 3333ms linear 1277ms forwards}.fnbvwWKy_60{stroke-dasharray:92 94;stroke-dashoffset:93;animation:fnbvwWKy_draw 3333ms linear 1298ms forwards}.fnbvwWKy_61{stroke-dasharray:144 146;stroke-dashoffset:145;animation:fnbvwWKy_draw 3333ms linear 1320ms forwards}.fnbvwWKy_62{stroke-dasharray:152 154;stroke-dashoffset:153;animation:fnbvwWKy_draw 3333ms linear 1341ms forwards}.fnbvwWKy_63{stroke-dasharray:175 177;stroke-dashoffset:176;animation:fnbvwWKy_draw 3333ms linear 1363ms forwards}.fnbvwWKy_64,.fnbvwWKy_65{stroke-dasharray:14 16;stroke-dashoffset:15;animation:fnbvwWKy_draw 3333ms linear 1385ms forwards}.fnbvwWKy_65{animation:fnbvwWKy_draw 3333ms linear 1406ms forwards}.fnbvwWKy_66{stroke-dasharray:15 17;stroke-dashoffset:16;animation:fnbvwWKy_draw 3333ms linear 1428ms forwards}.fnbvwWKy_67{stroke-dasharray:193 195;stroke-dashoffset:194;animation:fnbvwWKy_draw 3333ms linear 1450ms forwards}.fnbvwWKy_68{stroke-dasharray:24 26;stroke-dashoffset:25;animation:fnbvwWKy_draw 3333ms linear 1471ms forwards}.fnbvwWKy_69{stroke-dasharray:1210 1212;stroke-dashoffset:1211;animation:fnbvwWKy_draw 3333ms linear 1493ms forwards}.fnbvwWKy_70,.fnbvwWKy_71{stroke-dasharray:33 35;stroke-dashoffset:34;animation:fnbvwWKy_draw 3333ms linear 1515ms forwards}.fnbvwWKy_71{animation:fnbvwWKy_draw 3333ms linear 1536ms forwards}.fnbvwWKy_72{stroke-dasharray:14 16;stroke-dashoffset:15;animation:fnbvwWKy_draw 3333ms linear 1558ms forwards}.fnbvwWKy_73,.fnbvwWKy_74{stroke-dasharray:33 35;stroke-dashoffset:34;animation:fnbvwWKy_draw 3333ms linear 1580ms forwards}.fnbvwWKy_74{animation:fnbvwWKy_draw 3333ms linear 1601ms forwards}.fnbvwWKy_75{stroke-dasharray:16 18;stroke-dashoffset:17;animation:fnbvwWKy_draw 3333ms linear 1623ms forwards}.fnbvwWKy_76,.fnbvwWKy_77{stroke-dasharray:33 35;stroke-dashoffset:34;animation:fnbvwWKy_draw 3333ms linear 1645ms forwards}.fnbvwWKy_77{animation:fnbvwWKy_draw 3333ms linear 1666ms forwards}</style></svg>