<svg xmlns="http://www.w3.org/2000/svg" xmlns:xlink="http://www.w3.org/1999/xlink" width="700" height="700" id="svg2828"><defs id="defs2830"><linearGradient id="linearGradient3852"><stop id="stop3854" offset="0" stop-color="#f90113"/><stop id="stop3856" offset="1" stop-color="#ffbabf"/></linearGradient><filter x="-.083" y="-.187" width="1.166" height="1.373" id="filter3846" color-interpolation-filters="sRGB"><feGaussianBlur stdDeviation=".512" id="feGaussianBlur3848"/></filter><filter x="-.178" y="-.413" width="1.357" height="1.825" id="filter3882" color-interpolation-filters="sRGB"><feGaussianBlur stdDeviation=".19" id="feGaussianBlur3884"/></filter><filter x="-.206" y="-.336" width="1.413" height="1.671" id="filter3764" color-interpolation-filters="sRGB"><feGaussianBlur stdDeviation="2.787" id="feGaussianBlur3766"/></filter><filter id="filter3788" color-interpolation-filters="sRGB"><feGaussianBlur stdDeviation=".491" id="feGaussianBlur3790"/></filter><filter x="-.098" y="-.289" width="1.195" height="1.579" id="filter3814" color-interpolation-filters="sRGB"><feGaussianBlur stdDeviation="1.163" id="feGaussianBlur3816"/></filter><filter x="-1.067" y="-.052" width="3.134" height="1.104" id="filter3824" color-interpolation-filters="sRGB"><feGaussianBlur stdDeviation=".723" id="feGaussianBlur3826"/></filter><filter x="-.096" y="-.115" width="1.191" height="1.229" id="filter3744" color-interpolation-filters="sRGB"><feGaussianBlur stdDeviation="2.675" id="feGaussianBlur3746"/></filter><filter x="-.178" y="-.109" width="1.357" height="1.219" id="filter3760" color-interpolation-filters="sRGB"><feGaussianBlur stdDeviation="1.441" id="feGaussianBlur3762"/></filter><filter x="-.235" y="-.129" width="1.47" height="1.259" id="filter3815" color-interpolation-filters="sRGB"><feGaussianBlur stdDeviation=".944" id="feGaussianBlur3817"/></filter><filter id="filter3860" color-interpolation-filters="sRGB"><feGaussianBlur id="feGaussianBlur3862" result="result6" stdDeviation="1.5"/><feComposite in2="result6" operator="atop" in="SourceGraphic" result="result8" id="feComposite3864"/><feComposite in2="SourceAlpha" operator="atop" in="result8" result="result9" id="feComposite3866"/></filter><filter id="filter3884" color-interpolation-filters="sRGB"><feGaussianBlur id="feGaussianBlur3886" result="result6" stdDeviation="1.5"/><feComposite in2="result6" operator="atop" in="SourceGraphic" result="result8" id="feComposite3888"/><feComposite in2="SourceAlpha" operator="atop" in="result8" result="result9" id="feComposite3890"/></filter><filter id="filter3855" color-interpolation-filters="sRGB"><feGaussianBlur id="feGaussianBlur3857" stdDeviation="7.152" result="result8"/><feOffset id="feOffset3859" dx="-1.163" dy="-.581" result="result11"/><feComposite in2="result11" operator="in" in="SourceGraphic" result="result6" id="feComposite3861"/><feFlood id="feFlood3863" result="result10" flood-opacity="1" flood-color="#000"/><feBlend in2="result10" in="result6" result="result12" id="feBlend3865"/><feComposite in2="SourceGraphic" operator="in" result="result2" id="feComposite3867"/></filter><filter id="filter10361" color-interpolation-filters="sRGB"><feGaussianBlur result="result8" stdDeviation="2.951" id="feGaussianBlur10363"/><feOffset result="result11" dy=".602" dx="-1.205" id="feOffset10365"/><feComposite in2="result11" operator="in" in="SourceGraphic" result="result6" id="feComposite10367"/><feFlood flood-color="#000" flood-opacity=".805" result="result10" id="feFlood10369"/><feBlend in2="result10" in="result6" result="result12" id="feBlend10371"/><feComposite in2="SourceGraphic" operator="in" result="result2" id="feComposite10373"/></filter><filter id="filter3846-1" height="1.373" width="1.166" y="-.187" x="-.083" color-interpolation-filters="sRGB"><feGaussianBlur id="feGaussianBlur3848-9" stdDeviation=".512"/></filter><filter id="filter1653" height="1.373" width="1.166" y="-.187" x="-.083" color-interpolation-filters="sRGB"><feGaussianBlur id="feGaussianBlur1651" stdDeviation=".512"/></filter><filter id="filter1657" height="1.373" width="1.166" y="-.187" x="-.083" color-interpolation-filters="sRGB"><feGaussianBlur id="feGaussianBlur1655" stdDeviation=".512"/></filter><filter id="filter1661" height="1.373" width="1.166" y="-.187" x="-.083" color-interpolation-filters="sRGB"><feGaussianBlur id="feGaussianBlur1659" stdDeviation=".512"/></filter><filter id="filter1665" height="1.373" width="1.166" y="-.187" x="-.083" color-interpolation-filters="sRGB"><feGaussianBlur id="feGaussianBlur1663" stdDeviation=".512"/></filter><filter id="filter1669" height="1.373" width="1.166" y="-.187" x="-.083" color-interpolation-filters="sRGB"><feGaussianBlur id="feGaussianBlur1667" stdDeviation=".512"/></filter><filter id="filter3815-8" height="1.259" width="1.47" y="-.129" x="-.235" color-interpolation-filters="sRGB"><feGaussianBlur id="feGaussianBlur3817-8" stdDeviation=".944"/></filter><filter id="filter1675" height="1.259" width="1.47" y="-.129" x="-.235" color-interpolation-filters="sRGB"><feGaussianBlur id="feGaussianBlur1673" stdDeviation=".944"/></filter><filter id="filter1679" height="1.259" width="1.47" y="-.129" x="-.235" color-interpolation-filters="sRGB"><feGaussianBlur id="feGaussianBlur1677" stdDeviation=".944"/></filter><filter id="filter3760-2" height="1.219" width="1.357" y="-.109" x="-.178" color-interpolation-filters="sRGB"><feGaussianBlur id="feGaussianBlur3762-3" stdDeviation="1.441"/></filter><filter id="filter3744-6" height="1.229" width="1.191" y="-.115" x="-.096" color-interpolation-filters="sRGB"><feGaussianBlur id="feGaussianBlur3746-5" stdDeviation="2.675"/></filter><linearGradient gradientTransform="matrix(-.72356 -.99572 .88876 -.74463 135.063 78.843)" y2="384.459" x2="-291.366" y1="391.269" x1="-304.707" gradientUnits="userSpaceOnUse" id="linearGradient3320" xlink:href="#linearGradient3852"/><filter id="filter3824-1" height="1.104" width="3.134" y="-.052" x="-1.067" color-interpolation-filters="sRGB"><feGaussianBlur id="feGaussianBlur3826-0" stdDeviation=".723"/></filter><filter id="filter1693" height="1.104" width="3.134" y="-.052" x="-1.067" color-interpolation-filters="sRGB"><feGaussianBlur id="feGaussianBlur1691" stdDeviation=".723"/></filter><filter id="filter3764-0" height="1.671" width="1.413" y="-.336" x="-.206" color-interpolation-filters="sRGB"><feGaussianBlur id="feGaussianBlur3766-2" stdDeviation="2.787"/></filter><filter id="filter1699" height="1.373" width="1.166" y="-.187" x="-.083" color-interpolation-filters="sRGB"><feGaussianBlur id="feGaussianBlur1697" stdDeviation=".512"/></filter><filter id="filter3882-6" height="1.825" width="1.357" y="-.413" x="-.178" color-interpolation-filters="sRGB"><feGaussianBlur id="feGaussianBlur3884-9" stdDeviation=".19"/></filter><filter id="filter1705" height="1.373" width="1.166" y="-.187" x="-.083" color-interpolation-filters="sRGB"><feGaussianBlur id="feGaussianBlur1703" stdDeviation=".512"/></filter><filter id="filter3884-0" color-interpolation-filters="sRGB"><feGaussianBlur stdDeviation="1.5" result="result6" id="feGaussianBlur3886-4"/><feComposite id="feComposite3888-8" result="result8" in="SourceGraphic" operator="atop" in2="result6"/><feComposite id="feComposite3890-5" result="result9" in="result8" operator="atop" in2="SourceAlpha"/></filter><filter id="filter3814-1" height="1.579" width="1.195" y="-.289" x="-.098" color-interpolation-filters="sRGB"><feGaussianBlur id="feGaussianBlur3816-5" stdDeviation="1.163"/></filter><filter id="filter3788-7" color-interpolation-filters="sRGB"><feGaussianBlur id="feGaussianBlur3790-8" stdDeviation=".491"/></filter><filter id="filter3860-6" color-interpolation-filters="sRGB"><feGaussianBlur stdDeviation="1.5" result="result6" id="feGaussianBlur3862-8"/><feComposite id="feComposite3864-9" result="result8" in="SourceGraphic" operator="atop" in2="result6"/><feComposite id="feComposite3866-0" result="result9" in="result8" operator="atop" in2="SourceAlpha"/></filter><filter id="filter1721" height="1.373" width="1.166" y="-.187" x="-.083" color-interpolation-filters="sRGB"><feGaussianBlur id="feGaussianBlur1719" stdDeviation=".512"/></filter><filter id="filter1725" height="1.373" width="1.166" y="-.187" x="-.083" color-interpolation-filters="sRGB"><feGaussianBlur id="feGaussianBlur1723" stdDeviation=".512"/></filter><filter id="filter3855-1" color-interpolation-filters="sRGB"><feGaussianBlur result="result8" stdDeviation="7.152" id="feGaussianBlur3857-2"/><feOffset result="result11" dy="-.581" dx="-1.163" id="feOffset3859-5"/><feComposite id="feComposite3861-0" result="result6" in="SourceGraphic" operator="in" in2="result11"/><feFlood flood-color="#000" flood-opacity="1" result="result10" id="feFlood3863-3"/><feBlend id="feBlend3865-7" result="result12" in="result6" in2="result10"/><feComposite id="feComposite3867-0" result="result2" operator="in" in2="SourceGraphic"/></filter><filter id="filter10361-4" color-interpolation-filters="sRGB"><feGaussianBlur id="feGaussianBlur10363-1" stdDeviation="2.951" result="result8"/><feOffset id="feOffset10365-7" dx="-1.205" dy=".602" result="result11"/><feComposite id="feComposite10367-1" result="result6" in="SourceGraphic" operator="in" in2="result11"/><feFlood id="feFlood10369-3" result="result10" flood-opacity=".805" flood-color="#000"/><feBlend id="feBlend10371-7" result="result12" in="result6" in2="result10"/><feComposite id="feComposite10373-9" result="result2" operator="in" in2="SourceGraphic"/></filter><filter id="filter1753" color-interpolation-filters="sRGB"><feGaussianBlur result="result8" stdDeviation="7.152" id="feGaussianBlur1741"/><feOffset result="result11" dy="-.581" dx="-1.163" id="feOffset1743"/><feComposite id="feComposite1745" result="result6" in="SourceGraphic" operator="in" in2="result11"/><feFlood flood-color="#000" flood-opacity="1" result="result10" id="feFlood1747"/><feBlend id="feBlend1749" result="result12" in="result6" in2="result10"/><feComposite id="feComposite1751" result="result2" operator="in" in2="SourceGraphic"/></filter></defs><g id="layer1" transform="translate(0 200)"><g id="g2255" transform="matrix(1.38243 0 0 1.38243 3.376 -187.106)"><path id="path10828" d="M294.786 135.01c-3.28 0-6.517 1.73-9.47 3.46-13.296 8.65-23.695 20.76-28.56 34.6-.685 3.46-4.643 13.84-2.614 15.57-.991 0-2.576-1.73-4.126-1.73-.149-3.46-.105-8.65 1.23-12.11-3.813 3.46-7.14 8.65-10.876 12.11-.537 0-2.41-1.73-2.862-1.73 3.542-6.92 11.154-8.65 12.22-15.57-2.424 0-5.336-1.73-6.301-3.46 3.793-1.73 5.828 0 8.45-3.46 1.527-1.73 1.84-5.19 2.653-6.92 1.953-5.19 6.932-10.38 10.411-15.57 2.962-3.46 2.75-5.19-1.81-8.65-3.695-1.73-8.975-3.46-13.43-3.46-4.868 0-7.174 5.19-10.963 8.65-2.266-5.19.998-5.19 3.453-8.65-5.536 1.73-11.243 3.46-16.836 5.19-4.353 1.73-5.337-1.73-5.067-5.19 4.932-1.73 9.253-1.73 14.113-3.46 3.496 0 7.026-1.73 10.524-1.73-2.874-1.73-5.592-5.19-8.875-6.92 1.123-1.73 1.271-3.46 2.221-6.92-.44 1.73 23.288 13.84 25.945 13.84 8.837 3.46 20.172 6.92 29.106 1.73 6.875-3.46 13.878-6.92 20.963-10.38 4.373-1.73 9.35-5.19 14.139-5.19 1.493 0 12.683-3.46 12.601-3.46.718 1.73 1.466 3.46 2.21 5.19-3.64 0-12.877 3.46-16.024 5.19-4.013 3.46-3.209 5.19 1.106 6.92 4.392 3.46 9.103 5.19 13.81 6.92 4.265 1.73 7.919 5.19 12.45 6.92 1.19-1.73 2.657-1.73 3.712-3.46.798 3.46-2.31 5.19-2.546 6.92-.294 3.46 4.029 5.19 6.236 6.92-.413 1.73-1.32 1.73-2.038 1.73-1.515 0-3.183-3.46-5.03-3.46-.168 1.73.974 5.19 1.569 6.92.586 1.73 2.6 5.19 2.318 6.92-.834-1.73-1.593-1.73-2.318-1.73-1.386-1.73-2.083-5.19-2.765-6.92-.803-1.73-2.375-8.65-5.955-8.65.327 1.73 1.763 5.19 1.075 6.92-3.846-1.73-3.848-6.92-6.912-10.38-2.24-1.73-4.942-3.46-7.703-3.46-4.227-1.73-5.054 1.73-6.13 5.19-.777 1.73-1.44 8.65-5.709 8.65-3.072-1.73-2.84-3.46-2.7-5.19.105-3.46 3.363-13.84-.738-13.84-1.114 0-2.063 0-2.32 1.73-1.614 5.19.8 12.11.471 17.3-.173 3.46-3.363 5.19-6.048 3.46-2.273-1.73-3.386-3.46-3.635-5.19-.353-3.46.265-6.92-.273-10.38-.972-6.92-8.6-3.46-12.352-1.73z" class="AprUaMnG_0" font-size="12px" font-family="Arial, DejaVuSans, sans-serif" overflow="visible" fill="none" stroke="#f90113" stroke-width="0.55274034"/><path id="path10832" d="M277.574 86.569c1.4 0 4.493 5.19 6.782 5.19 1.33 0 .953-3.46.732-3.46-.322-1.73-.863-1.73-1.998-1.73-2.843-1.73-4.746-5.19-5.97-8.65-1.421-3.46-2.777-6.92-3.308-10.38-.409-3.46-.455-5.19-.943-8.65-.564-3.46-.983-6.92-.983-10.38 0-12.11-17.605-15.57-17.051-5.19.213 3.46.225 8.65-.042 12.11-.562 8.65-2.906 15.57-7.153 24.22-1.128 1.73-2.969 3.46-3.612 5.19-.571 1.73-.198 5.19.38 6.92h.017c1.102-1.73 1.943-3.46 2.625-3.46 1.342-1.73 2.685-3.46 3.766-6.92 1.587-1.73 2.922-5.19 4.031-8.65 1.175-3.46 2.107-6.92 2.526-10.38.687-6.92 1.361-12.11 1.107-19.03-.227-5.19-.893-10.38-.567-15.57.152-1.73 10.473 3.46 10.445 10.38-.027 5.19.265 10.38.305 15.57.017 1.73.031 3.46.339 5.19.962 5.19 1.403 10.38 2.732 15.57 1.078 3.46 2.522 8.65 5.84 12.11z" class="AprUaMnG_1" font-size="12px" font-family="Arial, DejaVuSans, sans-serif" overflow="visible" fill="none" stroke="#f90113" stroke-width="0.55274034"/><path id="path10834" d="M279.705 135.01c-3.574 0-5.744-1.73-9.046 0-3.08 1.73-5.85 5.19-8.358 6.92-5.076 5.19-9.086 12.11-13.209 19.03-4.595 6.92-9.164 13.84-14.11 19.03-1.066 1.73-1.815 3.46-3.091 5.19-1.251 0-2.999 1.73-3.63 3.46-1.957 0-3.246 0-1.796-1.73 1.5-3.46 3.25-5.19 4.825-6.92-1.958-1.73-7.252 1.73-6.166-1.73 2.173 0 4.767-1.73 6.876-1.73 2.077 0 2.591-1.73 3.685-3.46 1.254-1.73 3.124-3.46.939-5.19-1.542-1.73-4.225-1.73-6.181-1.73-4.478-1.73-9.185 0-13.607-1.73-.612-1.73 2.777-1.73 4.777-1.73-.74-3.46-6.92-3.46-4.77-6.92 4.135 1.73 9.1 3.46 14.008 3.46 3.821 0 5.968 0 8.688-3.46 3.541-3.46 6.263-6.92 9.036-12.11 2.008-1.73 4.334-5.19 5.733-8.65 3.118-8.65-8.008-12.11-13.487-10.38-4.868 0-7.174 5.19-10.961 6.92-2.267-3.46.996-5.19 3.45-6.92-5.539 0-11.24 3.46-16.834 5.19-4.356 0-5.339-1.73-5.067-6.92 4.932 0 9.254 0 14.113-1.73 3.495-1.73 7.024-1.73 10.526-1.73-2.872-3.46-5.593-5.19-8.873-6.92 1.12-1.73 1.27-5.19 2.22-6.92-.437 1.73 23.287 12.11 25.942 13.84 5.118 1.73 10.455 3.46 15.958 3.46 5.797 1.73 10.174-1.73 15.572-1.73 9.024-3.46 17.248-6.92 25.374-12.11 1.476 0 19.27-8.65 19.91-6.92.717 1.73 1.463 3.46 2.207 5.19-3.638 0-12.875 3.46-16.02 5.19-5.45 3.46-1.694 6.92 2.398 8.65 3.705 1.73 7.68 5.19 11.68 6.92 3.345 0 6.443 1.73 9.964 3.46h5.174c.613 0 5.79-1.73 5.609-1.73.178 0 .541 1.73.879 1.73-1.97 0-7.858 3.46-7.117 5.19.783 3.46 5.735 5.19 8.276 5.19-.253 1.73-.573 1.73-.711 3.46-3.355-1.73-6.072-5.19-9.411-5.19-3.165 0-.784 5.19-.248 8.65-2.889-1.73-2.975-6.92-4.122-8.65-.557-1.73-4.05-6.92-5.248-3.46-.294 0 .494 3.46.64 3.46.34 1.73.815 3.46 1.433 6.92.898 1.73 2.18 5.19 3.785 6.92h-2.866c-.992 0-.507-1.73-1.672-3.46-.87 1.73-.551 1.73-1.371 3.46-1.68-1.73-.374-3.46-.275-5.19.076-1.73-.42-3.46-.808-5.19-.985-3.46-1.999-10.38-5.779-12.11-3.08-3.46-7.074-3.46-10.603-3.46-3.444-1.73-7.73-3.46-11.29-1.73-6.77 1.73-2.462 12.11-.682 17.3 1.947 5.19 2.028 5.19-3.159 5.19-5.217 1.73-11.364 1.73-13.887-3.46-1.764-3.46-2.524-8.65-7.387-8.65-.609 0-1.221 0-1.835-1.73z" class="AprUaMnG_2" font-size="12px" font-family="Arial, DejaVuSans, sans-serif" overflow="visible" fill="none" stroke="#034484" stroke-width="0.60066181"/><path id="path10836" d="M276.15 467.173c-.027 1.73-21.403-15.57-22.2-22.49-.617-3.46-1.942-5.19-6.179-5.19-2.832 1.73-5.963 1.73-8.82 1.73-9.061 3.46-22.126 5.19-21.573 17.3.132 3.46 1.22 5.19.39 8.65-.713 1.73-2.3 3.46-2.853 6.92.162-1.73.694-3.46 1.003-5.19.106 0 .905-1.73.864-1.73-.431-3.46-5.185-1.73-4.876-5.19 1.06 0 2.537 1.73 3.893 1.73.14-1.73.007-5.19.045-6.92.034-1.73.71-3.46.874-5.19h-4.552c-2.353 1.73-4.519 5.19-6.7 6.92-.445-3.46 3.892-6.92 5.193-8.65-2.297-1.73-11.385-5.19-9.496-10.38.837 1.73.974 3.46 1.851 3.46.66 1.73 1.912 1.73 2.618 1.73.839-1.73.742-5.19.738-6.92 1.91 0 .895 3.46.891 5.19-.005 1.73.263 3.46 2.149 5.19 2.803 1.73 6.415 0 9.18-1.73.408-1.73 3.219-3.46 3.338-3.46.305 0-2.15-3.46-3.086-3.46-1.834 0-4.052 3.46-6.07 3.46-1.672-1.73-2.229-1.73-3.355-3.46 1.63 0 2.593 1.73 4.275 0 1.479 0 3.18-1.73 4.505-1.73-1.185-1.73-2.33-3.46-3.895-3.46-1.49 0-2.678 3.46-3.944 1.73.564-1.73 2.533-1.73 3.559-3.46-1.476-1.73-2.016-5.19-3.376-6.92-.86-1.73-3.745-5.19-2.064-6.92 1.153 1.73 1.525 5.19 3.677 6.92 1.636-1.73.823-8.65 3.955-10.38-.168 1.73-1.606 3.46-1.442 5.19 1.355 0 2.734-1.73 4.213-1.73-.483 1.73-1.62 1.73-2.739 1.73-1.103 0-1.37 1.73-1.825 1.73-1.052 3.46-.294 5.19.988 6.92 5.548 12.11 4.254-6.92 7.854-6.92-.114 0-2.505 8.65-2.69 10.38-.886 3.46.357 6.92 5.194 6.92 6.344-1.73 12.968-3.46 19.097-5.19 6.346-1.73 12.796-3.46 13.35-10.38.712-10.38.968-19.03 1.66-29.411 1.42-20.76 3.21-39.79 4.313-60.55.407-6.92.723-15.57.894-22.49.277-12.11-1.964-24.221-.722-36.331.27-3.46 1.648-24.22.864-24.22 4.815 1.73 11.578-1.73 11.578-1.73 7.445 12.11 7.849 20.76 7.663 29.41-.707 15.57.88 29.41-.233 44.98-1.879 25.95-1.294 50.17-3.656 76.121-.99 10.38-1.64 20.76-2.13 31.14-.288 6.92-1.115 13.84-1.39 19.03-.258 6.92-.396 12.11-.8 17.3z" class="AprUaMnG_3" font-size="12px" font-family="Arial, DejaVuSans, sans-serif" overflow="visible" fill="none" stroke="#034484" stroke-width="0.60066181"/><path id="path10848" d="M101.356 264.76c.844-3.46-2.734-5.19-4.469-8.65-1.578-1.73-3.91-3.46-4.472-5.19-1.092-5.19 1.34-12.11 1.982-17.3.976-6.92 1.874-13.84 2.834-22.49.44-3.46.597-6.92 1.287-10.38.592-1.73 1.341-1.73 2.895 0 1.019 1.73 1.652 3.46 2.453 5.19 1.457 3.46 3.562 6.92 4.59 10.38 1.43-1.73-1.377-6.92-2.424-8.65-2.66-5.19-5.687-10.38-5.522-17.3.176-6.92 2.513-13.84 3.664-19.03.86-5.19 2.796-10.38 3.273-15.57.452-3.46 2.17-8.65 3.687-13.84 1.967-5.19 4.13-10.38 6.58-17.3 1.139-1.73 2.85-3.46 3.833-6.92.98-3.46 1.197-6.92 3.76-8.65.47 6.92.822 12.11 2.255 19.03 2.752-1.73.116-8.65-.068-12.11-.64-8.65 4.884-15.57 12.024-22.49 8.038-6.921 17.425-12.111 27.402-17.301 7.157-1.73 14.345-5.19 21.983-5.19 9.114-1.73 18.108-3.46 27.301-1.73 6.128 1.73 10.567 3.46 15.474 6.92 4.929 3.46 8.915 8.65 13.16 12.11 4.43 5.19 8.686 10.38 12.511 15.57 2.473 3.46 7.704 8.65 7.706 12.11.002 3.46-1.697 5.19-1.941 8.65-.273 3.46-.121 5.19.424 8.65 1.282 6.92 4.278 13.84 7.04 20.76 1.684 3.46 2.44 3.46 6.713 3.46h9.856c1.16-1.73 10.287-6.92 8.721-8.65-3.673-3.46-11.205-24.22-4.643-27.68-.206 0 1.97 5.19 2.175 5.19 6.176-1.73 15.646-12.11 12.893-19.03-2.109-5.19-7.037-6.92-11.849-6.92.795 0 2.909-8.65 3.412-8.65 6.567-13.84 23.67-22.49 37.856-24.22 20.695-3.46 39.77 6.92 53.702 22.49 10.124 10.38 16.613 22.49 20.736 36.33 1.913 6.92 4.35 13.84 4.27 20.76-.092 8.65-3.625 15.57-6.11 24.22-2.684 6.92-3.72 15.571-3.252 24.221.966 17.3 7.628 32.87 10.979 50.17-1.225-5.19-1.683-12.11-3.432-19.03-1.531-5.19-2.614-10.38-3.63-15.57-2.351-13.84-1.202-27.68 2.099-39.79.81-3.46 3.245-17.3 7.522-10.38 3.235 5.19 2.747 15.57 4.036 20.76 2.232 10.38 4.46 20.76 6.64 31.14 3.557 15.57 6.09 34.6 9.769 50.17 1.778 8.65 4.735 17.3 5.323 25.951.516 6.92.132 10.38-1.635 17.3-1.164 5.19-1.894 10.38-2.61 15.57-1.197 8.65-1.846 15.57-1.84 24.22.015 29.41 5.706 58.821 10.426 86.501 1.451 8.65 2.962 17.3 4.792 25.95 2.519 12.11 42.745 12.11 39.614-17.3-1.114-10.38-1.656-19.03-2.15-29.41-.578-12.11 1.152-24.22.74-36.33-.292-8.65-2.464-17.3-3.289-25.95-1.9-20.76-8.63-39.79-23.108-53.631-4.849-5.19-9.317-10.38-12.781-15.57-4.365-6.92-6.979-17.3-8.238-25.95-2.524-17.3-5.298-32.87-8.785-50.17-3.396-15.571-5.213-32.871-8.906-48.441-2.04-8.65-4.606-19.03-7.35-27.68-6.508-20.76-11.928-36.33-29.806-50.171-12.332-10.38-27.836-15.57-43.295-17.3-6.145-1.73-12.564 0-18.442 1.73-6.223 1.73-11.239 6.92-16.878 3.46-5.296-3.46-7.481-10.38-10.26-17.3-1.492-1.73-3.254-5.19-4.638-8.65-1.093-1.73-2.435-3.46-3.586-6.92-.708 0-1.554-3.46-3.12-5.19.39 1.73.05 3.46-.03 5.19-.043 0-.284 1.73-.185 1.73.13 1.73.904 1.73 1.299 3.46.526 0 1.221 1.73 1.882 3.46 1.46 1.73 2.87 3.46 4.12 6.92 2.195 5.19 4.418 8.65 6.174 13.84 1.29 3.46 4.02 8.65 1.022 12.11-3.315 3.46-7.423 5.19-10.468 10.38-3.057 3.46-4.555 6.92-5.787 12.11.602-5.19 1.178-12.11 1.178-17.3 0-15.57.25-31.14.69-44.98.237-8.65-48.179 3.46-46.86 10.38.946 5.19 1.726 8.65 1.944 13.84.019 0-.38 10.38-.998 10.38-2.7-1.73-4.867-3.46-7.829-5.19-2.436 0-4.963-1.73-7.425-1.73-3.635-1.73-2.76-1.73-1.681-5.19 1.47-5.19 2.972-8.65 5.501-12.11a652.58 652.58 0 0 1 7.024-10.38c.784-1.73.531-1.73.187-3.46-.274 0-.274-1.73-.611-3.46-.574 3.46-2.829 5.19-4.03 6.92-2.663 3.46-5.674 6.92-8.291 10.38-1.77 1.73-3.766 5.19-5.754 6.92-1.232 1.73-2.514 3.46-3.825 3.46-3.915 3.46-4.59-1.73-5.83-3.46-.824-3.46-1.895-3.46-3.715-5.19.043 1.73 1.832 1.73 2.55 3.46.746 1.73.786 3.46 1.244 5.19-.14 0-4.337-1.73-4.936-3.46-2.593-1.73-4.735-3.46-5.977-6.92-.555-1.73-.8-3.46-2.145-3.46.77 3.46 1.972 6.92 4.697 10.38-2.074-1.73-4.116-1.73-6.21-1.73.608 1.73 5.914 1.73 7.758 3.46 2.367 0 5.222 1.73 6.88 5.19h-12.267c-8.833 0-18.077 3.46-26.557 5.19-5.649 1.73-11.152 3.46-16.432 6.92-7.905 3.46-14.76 10.38-22.745 13.84-2.141 0-14.213 1.73-13.37 5.19 2.502 0 4.862-1.73 7.265-1.73-.128 1.73-1.149 1.73-2.13 3.46-4.62 5.19-6.824 10.38-10.307 17.3-4.469 6.92-7.9 15.57-10.813 24.22-3.26 8.65-4.76 19.03-9.022 27.68-4.268 10.38-10.996 17.3-16.047 25.951-1.682 1.73-3.75 5.19-5.886 6.92-1.245 1.73-4.32 3.46-3.946 6.92 1.064-1.73 2.474-1.73 3.652-3.46-1.982 6.92-5.724 13.84-8.306 22.49-3.906 10.38-6.086 20.76-3.847 32.87 1.524 6.92 2.323 13.84.854 22.49-.951 5.19-4.72 12.11-1.287 17.301-1.96-5.19.583-10.38 1.827-13.84 1.268-3.46 1.84-8.65 1.588-12.11 1.178 0 2.068 1.73 3.27 3.46.398-1.73-2.188-6.92-2.813-8.65-.886-3.46-1.361-8.65-1.685-12.11-.605-6.92-.152-15.57 1.685-22.49 1.848-6.92 5.266-13.84 7.944-19.03 1.038-3.46 1.402-6.92 2.126-8.65 1.35-5.19 4.42-8.651 7.51-12.111 1.893-3.46 8.318-12.11 11.107-5.19 1.642 1.73-.194 6.92-.8 10.38-2.066 12.11-4.13 22.49-6.134 32.87-2.612 15.57-5.328 29.41-8.06 43.25-1.408 6.92-2.929 13.84-5.564 20.761-2.486 6.92-4.233 13.84-9.108 19.03-11.2 13.84-26.028 22.49-35.685 36.33-2.972 3.46-4.535 8.65-5.988 13.84-2.045 6.92-4.083 13.84-4.5 20.76-.647 10.38-.311 20.761-1.659 32.871-1.576 12.11-2.558 25.95-5.61 38.06-1.493 5.19-4.055 12.11-4.991 17.3-.976 6.92 33.427 17.3 40.95 3.46 3.833-6.92 8.02-12.11 10.84-20.76 2.826-6.92 4.973-15.57 7.849-22.49 3.576-10.38 7.32-19.03 10.992-29.41 2.63-6.92 5.714-12.11 8.11-19.03 1.807-5.19 2.291-12.11 3.016-17.3.61-3.46 2.235-8.65 1.72-13.84-1.204-10.38-2.64-19.03-5.77-29.41-1.39-5.19-3.763-10.38-4.033-15.57-.323-5.191 3.251-12.111 4.654-17.301 1.175-3.46 2.07-8.65 3.04-13.84.766-3.46 2.415-6.92 3.35-10.38.35-1.73.515-6.92 2.073-8.65 1.279 0 3.696 3.46 4.417 5.19 2.244 1.73 4.175 3.46 6.097 6.92zM79.72 327.042c.867 3.46 1.391 6.92 1.742 10.38 1.204 10.38-.116 22.49-2.583 32.87-1.126 5.19-2.7 10.38-3.323 13.84-.613 5.19-4.173 8.651-6.775 13.841-4.816 6.92-11.716 12.11-18.061 17.3-5.31 5.19-10.61 10.38-14.029 17.3-5.66 10.38-9.792 22.49-14.2 32.87-2.733 6.92 4.851-5.19 9.508-19.03 4.178-12.11 12.354-22.49 22.359-31.14 5.586-5.19 10.666-10.38 16.067-15.57-2.462 8.65-5.735 15.57-8.436 24.22-1.917 6.92-3.993 12.11-6.18 17.3-5.06 13.84-12.395 25.95-18.322 38.06-4.604 10.38-28.445-5.19-26.193-17.3 3.474-19.03 7.484-38.06 9.964-55.36 2.88-22.49 7.802-44.98 18.372-64.01 6.199-12.11 16.33-19.03 25.852-27.68 3.668-3.46 5.962-1.73 8.837 1.73 2.602 3.46 4.283 6.92 5.401 10.38zM282.589 38.13c.093 6.92-.703 15.57-1.056 24.22-.302 6.92-1.486 12.11-1.076 19.03.253 5.19.021 8.65-.558 13.84-.31 1.73-.563 6.92-2.585 8.65-3.408 1.73-12.43-13.84-14.681-15.57-3.18-5.19-7.299-8.65-9.904-12.11-2.454-3.46-2.106-10.38-2.84-13.84-.842-5.19-1.615-10.38-2.437-15.57-1.806-12.11 35.033-17.3 35.137-8.65zm203.107 384.063h.056c.23 5.19.43 8.65.911 12.11 1.023 6.92 1.725 13.84 2.303 22.49 1.14 13.84-26.64 25.95-27.23 20.76-1.317-8.65-3.623-17.3-5.424-25.95-1.104-5.19-1.933-12.11-2.922-17.3-.704-3.46-1.208-6.92-2.073-12.11-.666-1.73-.557-5.19-1.178-8.65-1.638-8.65-3.057-15.57-4.142-24.22-.295-1.73-4.79-29.41-1.266-29.41.93 0 1.35 1.73 1.716 1.73 1.365 3.46 2.462 5.19 3.602 8.65 1.427 3.46 3.121 5.19 4.304 8.65 1.916 5.19 3.632 12.11 4.725 17.3.77 3.46 2.628 6.92 2.848 10.38.173 3.46 1.174 6.92 1.768 8.65.655 3.46.962 6.92 1.36 10.38.667 5.19.839 12.11-.45 17.3-.358 1.73-1.395 3.46-.623 5.19.958-1.73 1.284-5.19 2.057-6.92h.597c1.882 6.92 2.475 13.84 2.937 20.76.222 3.46.462 6.92.673 10.38.18 3.46 1.05 5.19.957 8.65 1.074-1.73-.175-6.92-.27-10.38-.11-1.73-.033-5.19-.232-8.65-.335-3.46-.458-8.65-1.382-13.84-1.131-6.92-1.955-12.11-2.706-17.3-.609-5.19-.342-10.38-1.207-13.84-2.142-12.11-3.728-24.22-7.938-36.33-1.942-5.19-3.975-8.65-6.347-13.84-4.036-8.65-8.517-19.03-7.398-27.68 1.4-12.11 1.912-24.22 4.637-34.6.36-1.73 1.27-8.651 2.536-8.651 8.114-6.92 25.63 24.22 26.949 31.14 2.415 10.38 5.724 19.03 6.406 31.14 1.088 17.3 1.066 32.87-5.695 48.441-2.476 6.92-4.568 12.11-6.002 19.03-2.183 8.65-.44 17.3-.344 27.68.041 3.46.133 8.65.325 12.11.182 3.46.902 6.92 1.542 12.11 1.828 10.38 2.617 10.38 2.512 6.92-.102-1.73-.7-5.19-1.035-8.65-.73-6.92-.955-13.84-.555-19.03.392-6.92-.993-13.84-1.61-19.03-.624-6.92 1.151-13.84 3.314-20.76 2.783-6.92 5.093-13.84 8.877-22.49-.158 10.38-.405 19.03.117 27.68z" class="AprUaMnG_4" font-size="12px" font-family="Arial, DejaVuSans, sans-serif" overflow="visible" fill="none" stroke="#f90113" stroke-width="0.55274034"/><g transform="matrix(1.73002 0 0 1.73002 -287.465 -159.093)" id="g10862" font-size="12px" font-family="Arial, DejaVuSans, sans-serif" overflow="visible"><path id="path10854" d="M330.329 278.235c-.002 2.946.38 8.285 2.317 10.557 1.514 1.773 3.392 3.04 5.452 4.258 2.691 1.591 5.463 3.237 8.597 3.74.085 1.379.52 2.653-.383 3.98-.89 1.31-3.105.077-4.291-.287-2.282-.703-4.526-1.448-6.729-2.375-3.494-1.467-5.594-4.21-8.274-6.696-.857.654-.788 1.773-1.129 2.735-.406 1.151-.985 2.236-1.532 3.324-1.028 2.043-1.804 4.525-3.599 6.061-.571.489-1.623.612-2.358.405-1.072-.299-2.566-1.834-2.54-3.037.026-1.255 1.5-2.223 2.159-3.177.782-1.134 1.121-2.428 1.514-3.732.173-.57.479-1.251.333-1.837a16.73 16.73 0 0 1-4.724 4.208c-1.155.687-3.887 2.498-4.997 1.338-.434-.452-.895-1.002-1.167-1.587-.732-1.556.242-1.825 1.446-2.383 1.263-.585 2.531-1.44 3.747-2.176 4.064-2.461 5.237-6.473 4.986-11.198" class="AprUaMnG_5" fill="none" stroke="#034484" stroke-width="0.34720001"/><path id="path10856" d="M319.729 303.174c2.275-.541-.026-3.096-1.329-3.332-1.483-.267-2.464.94-1.557 2.321.567.865 1.914 1.24 2.886 1.011z" class="AprUaMnG_6" fill="none" stroke="#034484" stroke-width="0.34720001"/><path id="path10858" d="M346.219 297.443c-.835.36-1.149 2.353-.798 3.062" class="AprUaMnG_7" fill="none" stroke="#034484" stroke-width="0.34720001"/><path id="path10860" d="M309.476 294.914c.852.266 1.788 1.937 1.599 2.529" class="AprUaMnG_8" fill="none" stroke="#034484" stroke-width="0.34720001"/></g><path id="path10866" d="M276.73 477.553c.414-6.92.052-13.84.687-22.49.384-3.46 1.64-6.92 1.873-12.11.438-8.65.995-15.57 1.62-24.22 1.252-17.301 2.775-32.871 4.148-50.171 1.58-19.03 3.908-38.06 4.253-57.09.173-8.65.842-19.031 1.242-27.681.316-8.65 2.287-15.57 4.53-22.49 5.4 6.92 11.666-1.73 11.666-1.73 1.898 8.65 4.03 19.03 3.185 27.68-1.984 19.03-1.095 38.06-3.48 57.09-2.096 17.3-2.599 34.6-3.928 51.901-.645 8.65-.965 17.3-1.425 24.22-.047 1.73-.076 10.38.123 10.38 5.268 1.73 11.778 1.73 16.6 0 7.525-5.19 9.516-15.57 17.09-20.76-.554 5.19-5.77 8.65-7.306 12.11 1.685 0 4.22-1.73 5.683 0-2.074 1.73-4.897 1.73-6.894 3.46-1.592 0-2.963 1.73-4.048 3.46-2.869 5.19-.851 6.92 3.47 5.19 3.671 0 7.01-1.73 10.361-5.19 1.751 0 3.059 0 3.386-3.46.308-1.73-.73-3.46.06-5.19 1.623 1.73-.181 5.19.935 6.92.796-1.73 2.304-3.46 3.558-3.46-1.136 1.73-3.136 5.19-5.781 6.92-1.222 1.73-6.53 3.46-6.721 5.19-.17 0 2.659 1.73 2.674 3.46-2.062 0-3.22-3.46-5.463-3.46-2.67 0-2.966 1.73-1.865 3.46 2.683 5.19 11.22 3.46 15.885 3.46-2.235 1.73-12.778-1.73-13.442 1.73-.27 1.73 3.546 3.46 4.321 5.19 1.725 1.73 4.666 5.19 4.87 6.92-2.067-1.73-5.811-8.65-8.24-6.92-2.739 3.46 4.214 12.11 1.908 13.84-1.325-1.73-2.898-8.65-4.697-8.65-1.792 0-3.136 5.19-4.837 6.92-.763-3.46 9.221-12.11 4.851-15.57-3.078-1.73-5.117 6.92-8.245 6.92-.263-3.46 4.176-5.19 5.437-8.65 1.023-1.73-1.062-5.19-3.944-5.19-3.045 0-7.683 0-10.811 1.73-3.441 0-7.216 0-9.697 1.73-2.055 1.73-2.806 5.19-2.813 8.65-.012 5.19.248 10.38-.005 15.57-.477 10.38-21.485 22.49-20.774 10.38z" class="AprUaMnG_9" font-size="12px" font-family="Arial, DejaVuSans, sans-serif" overflow="visible" fill="none" stroke="#8a020c" stroke-width="0.55274034"/><path id="path10910" d="M495.957 468.903c-.17-6.92-.978-13.84-1.46-20.76-.47-6.92.214-12.11.996-19.03.177-1.73.341-3.46.5-3.46 2.54-24.221 2.728-50.171 1.626-74.391-.958-20.76-4.73-44.98-20.552-58.821-3.25-3.46-7.86-6.92-9.206-12.11-1.247-3.46-.558-8.65-.289-13.84.46-6.92.466-13.84.18-20.76-.95-25.95-7.683-48.44-16.502-72.661-8.098-20.76-18.54-41.52-33.824-58.82-14.376-15.57-28.79-31.141-47.975-41.521-6.884-3.46-14.484-6.92-22.096-8.65-5.608 0-10.994 1.73-15.11-3.46-6.667-6.92-8.975-17.3-12.976-25.95-5.395-10.38-6.962-1.73-4.108 5.19.964 1.73 10.507 22.49 7.128 24.22-7.605 1.73-11.59 1.73-14.25-5.19-2.514-8.65-5.069-15.57-7.557-22.49-4.147-12.11-7.608 0-4.167 8.65 1.915 5.19 3.95 10.38 4.608 15.57.305 1.73.355 5.19-.517 6.92-.387 1.73-.827 1.73-1.654 3.46h-2.923c.038-1.73-.186-3.46-.308-3.46h-1.474c.835 3.46-.326 5.19-2.827 6.92-2.858 0-5.514 3.46-8.147 5.19-7.506 3.46-13.66 8.65-19.14 15.57-.913 1.73-4.438 6.92-5.815 6.92-2.215 0-3.886-3.46-5.012-5.19-3.858-3.46-7.896-8.65-11.683-13.84-2.775-3.46-6.335-6.92-7.43-12.11-1.858-6.92.595-15.57 1.259-24.22.76-8.65-9.098-10.38-9.617-1.73-.21 3.46-.585 6.92-.986 10.38-.286 1.73.07 6.92-1.158 8.65-1.972 3.46-7.762 0-10.61 0-2.048 0-3.46 0-4.29-1.73-1.531-3.46 1.074-10.38 1.958-13.84 1.405-5.19 3.028-10.38 4.265-15.57 1.937-8.65-1.448-10.38-2.646-6.92-1.065 3.46-2.06 6.92-3.017 10.38-1.756 5.19-2.591 10.38-4.88 15.57-.998 3.46-3.858 10.38-6.936 10.38-2.574 0-3.304-5.19-3.37-6.92h-2.003c-.173 1.73.668 3.46 1.08 5.19-.191 0-2.796-1.73-3.423-1.73-1.38 0-2.68-1.73-3.39-3.46-1.013-1.73-.161-1.73-2.096-3.46-.007 1.73.246 3.46.632 3.46h-5.25c.181 1.73 1.141 0 2.458 1.73 2.17 0 3.39 1.73 5.063 1.73 1.79 1.73 3.696 3.46 5.298 5.19h-4.441c-1.808 1.73-3.621 1.73-5.401 1.73-7.737 1.73-15.292 5.19-22.702 8.65-6.57 1.73-13.098 5.19-20.016 6.92-3.467 1.73-7.024 1.73-10.475 3.46-6.718 1.73-13.538 5.19-18.843 10.38C75.852 122.9 72.38 173.07 59.5 212.86c-3.538 10.38-4.545 24.22-5.874 36.33-1.064 8.65-1.728 17.3-2.282 27.68-.24 3.46-.963 6.92-1.616 10.38-.896 6.921-1.164 12.111-3.787 17.301-3.998 8.65-8.281 15.57-12.426 22.49-6.02 10.38-14.26 22.49-15.683 34.6-.993 6.92-.725 15.57-1.948 24.22-1.605 12.111-3.71 22.491-6.242 34.601-2.692 10.38-5.318 22.49-7.66 34.6-2.02 10.38 55.895-1.73 65.612-27.68 2.85-6.92 6.682-13.84 9.675-20.76 5.764-13.84 9.849-29.41 12.32-43.25 2.035-12.11 3.298-24.22 4.307-38.06.49-5.19 1.77-12.11 1.29-17.3-.346-5.19-1.404-8.65-1.212-13.841 1.062-24.22 7.658-48.44 11.439-72.66 3.428-22.49 6.174-44.981 12.104-65.741 2.357-8.65 3.52-19.03 6.604-27.68 6.091-15.57 16.17-29.41 30.727-39.79 11.843-8.651 26.208-12.111 40.44-12.111 4.798 0 10.237-1.73 14.822 0 4.913 1.73 9.169 5.19 13.3 8.65 7.038 5.19 12.624 12.11 17.27 19.03 4.215 6.92 10.573 13.84 12.938 20.76 2.718 8.65 3.917 17.3 6.08 25.95 1.037 5.19-2.612 13.84-.878 17.3 1.851 3.46 10.217 1.73 12.242 0h.447c-3.583-8.65 3.12-25.95 1.193-32.87-.77-3.46-1.31-6.92-1.455-10.38-.303-6.92 1.605-13.84 4.586-19.03 2.844-5.19 6.46-8.65 11.428-13.84 10.88-8.65 24.498-13.84 38.353-15.57 9.12 0 19.245 0 28.073 1.73 16.77 5.19 34.332 19.03 42.576 32.87 7.245 13.84 5.89 32.87 3.963 46.71-2.292 17.3-3.958 36.331-1.565 53.631 1.335 8.65 3.243 19.03 5.529 27.68 1.969 8.65 4.041 15.57 6.536 24.22 2.02 6.92 4.553 12.11 7.605 19.03 2.019 3.46 4.335 6.921 6.723 10.381 2.278 3.46 5.462 6.92 7.736 10.38 1.315 1.73.753 3.46.514 5.19-1.199 12.11.239 24.22.026 36.33-.256 13.84 1.895 29.41 2.324 43.25.35 12.111 2.444 24.221 4.12 36.331 1.777 12.11 5.761 24.22 9.232 36.33 2.292 8.65 4.832 17.3 6.313 24.22 1.641 10.38 41.063 1.73 40.638-15.57zM8.836 442.953c4.026-19.03 9.467-38.06 11.994-57.091.538-3.46.28-6.92.474-12.11.14-3.46.93-5.19 1.215-8.65.732-6.92 2.05-13.84 6.704-19.03 4.254-6.92 7.254-12.11 11.073-19.03 1.663-1.73 3.29-5.19 4.402-6.92 1.173-3.46 2.404-6.92 3.852-10.38 1.154-1.73 1.552-5.19 3.95-6.92 1.444 1.73 1.156 8.65 1.329 10.38.403 5.19.965 8.65 2.181 13.84 1.324 5.19-1.216 8.65-2.57 13.84-.374 1.73-.784 1.73-1.213 3.46-1.34 3.46-2.865 8.65-4.016 12.11-3.498 12.11-8.098 22.49-11.885 34.6-3.602 12.11-7.526 22.49-12.378 32.87-2.564 6.92-5.145 12.11-7.787 19.03-3.462 6.92-7.794 13.84-11.553 20.76 3.017-5.19 2.835-13.84 4.228-20.76zm37.149-15.57c-.246 0-.486-1.73-.595-1.73-.487-3.46-1.012-6.92-1.308-10.38-.545-5.19-.751-12.11-.767-17.301-.02-6.92 1.919-15.57 3.455-20.76 1.766-8.65 4.853-15.57 7.91-22.49 1.965-5.19 3.57-10.38 5.204-13.84 2.323-6.92 4.041-12.11 10.056-15.57 1.947-1.73 3.424-3.46 4.334 0 .66 1.73.365 5.19.365 6.92 0 3.46.01 5.19-.306 8.65-.611 5.19-1.376 10.38-2.374 15.57-1.99 10.38-4.846 19.03-8.453 29.41-3.852 10.38-6.883 22.49-11.504 31.14-2.32 5.19-3.438 12.11-5.545 17.3.564-1.73.036-3.46-.472-6.92zm-41.57 46.71c.657-1.73 1.743-3.46 2.594-5.19 1.133-1.73 1.786-3.46 2.723-5.19 3.811-8.65 8.412-17.3 12.612-24.22 1.491-3.46 2.671-6.92 4.557-8.65 1.676-3.46 2.8-5.19 3.8-6.92 2.56-6.92 4.815-13.84 7.137-20.76.396-1.731 3.252-8.651 2.714-8.651 2.341 3.46.666 10.38 1.236 15.57.484 3.46 1.077 6.92 1.846 10.38.795 5.19 1.363 8.65 1.595 12.11.3 6.92-2.614 10.38-4.332 15.57-2.722 6.92-5.557 15.57-8.87 22.49-1.862 3.46-3.178 8.65-4.853 12.11-4.468 12.11-24.223-5.19-22.758-8.65zm36.682 6.92c-2.157 5.19-13.765 8.65-10.397 0 1.509-3.46 3.28-6.92 4.783-10.38.603-1.73 1.507-6.92 3.23-6.92 2.15 0 4.607 5.19 5.16 6.92 1.487 3.46-.892 6.92-2.776 10.38zM91.22 320.12a406.367 406.367 0 0 1-2.063 15.57c-.893 5.19-.568 10.38-1.405 15.57-1.085 8.65-2.426 15.57-3.97 22.49-1.338 5.19-3.064 12.11-5.075 17.3-6.43 19.031-13.345 36.331-21.874 53.631-2.35 5.19-4.36 10.38-6.38 15.57-.97 1.73-2.108 5.19-3.391 6.92-1.165 0-1.703-1.73-2.554-1.73-.922-1.73-2.131-3.46-3.053-3.46-2.26-3.46.252-6.92 1.048-10.38 2.836-10.38 7.245-19.03 11.012-29.41 3.119-8.65 7.079-15.57 9.62-24.22.301-1.73.623-1.73.957-3.46 2.301-6.92 5.233-13.84 7.07-20.76 3.243-12.11 5.182-24.22 6.531-38.06.483-3.46.009-8.65.116-12.11.097-5.19 2.286-8.65 4.44-12.11a46.587 46.587 0 0 1 4.165-5.19c1.798-1.73 2.95-3.46 4.2-5.19-.651 3.46.388 5.19.387 8.65.001 3.46.659 6.92.22 10.38zm18.84-167.811c-1.86 8.65-2.934 17.3-4.953 25.95-7.968 32.87-8.338 69.2-16.286 103.8-1.355 6.921-2.682 12.111-5.681 17.301-2.43 3.46-15.8 25.95-22.818 20.76-1.704-1.73-1.994-8.65-2.316-10.38-2.955-19.03-2.967-36.33-.474-57.09.87-5.19 1.998-12.11 3.038-19.03 2.06-13.84 4.71-27.68 7.832-39.79 3.51-15.571 7.466-31.141 12.296-44.981 1.552-5.19 3.537-8.65 5.514-13.84 3.654-8.65 8.361-15.57 13.511-22.49 5.274-6.92 11.823-13.84 19.622-19.03 4.076-3.46 7.673-5.19 12.347-5.19 2.165-1.731 13.844-1.731 14.796-3.461-4.613 6.92-12.237 10.38-16.866 15.57-5.016 6.92-8.85 15.57-11.796 24.22-3.345 8.65-5.72 17.3-7.766 27.68zm372.758 323.513c-.723-1.73-2.295-5.19-2.74-8.65-.033 0-.064-1.73-.081-1.73-.315-3.46.98-6.92 2.678-10.38 1.36-3.46 2.484-6.92 4.112-8.65.715-1.73 3.642-6.92 3.289-6.92.853 3.46.61 6.92 1.033 10.38.785 5.19 1.456 12.11 2.074 17.3.884 8.65-9.318 13.84-10.365 8.65zm-19.42 8.65c-1.101-5.19-2.295-10.38-2.795-15.57-.204-3.46-.143-5.19.023-6.92.299-3.46.94-8.65.937-12.11-.003-3.46-1.607-10.38.24-12.11 2.345 5.19 6.28 10.38 9.812 17.3 1.408 1.73 2.837 3.46 3.538 5.19 4.029 13.84-10.425 29.41-11.756 24.22zm31.056-93.421c.182 8.65-1.108 17.3-2.198 25.95-.442 3.46-.81 8.65-1.291 12.11-.419 1.73-1.855 5.19-3.297 6.92-2.158 3.46-4.319 8.65-6.524 12.11-1.144 1.73-1.767 5.19-3.915 6.92-3.908-5.19-5.747-10.38-9.014-15.57-6.814-8.65-5.55-22.49-4.3-32.87.454-3.46.702-8.65.892-12.11.417-8.65.542-17.3 1.898-25.95.872-6.92.794-13.84 2.898-19.03 2.32 0 6.108 3.46 7.697 5.19 2.681 1.73 5.31 5.19 7.816 6.92 2.616 3.46 6.9 6.92 8.076 10.38 2.157 5.19 1.12 13.84 1.262 19.03zm-30.368-91.69c1.026-3.461.839-6.921 1.446-8.651 3.036 0 6.732 3.46 9.226 5.19 3.708 3.46 6.671 8.65 8.98 12.11 1.755 3.46 2.96 6.92 3.93 10.38 1.837 6.92 3.243 13.84 3.752 20.76.386 5.19.85 10.38 1.154 15.57.14 1.73 1.944 8.65.014 10.38-4.171-3.46-7.192-6.92-11.046-10.38-2.12-1.73-4.931-3.46-7.39-5.19-2.127-1.73-3.996-3.46-4.904-6.92-1.318-3.46-1.901-6.92-2.856-10.38-1.882-6.92-4.836-13.84-4.344-20.76.252-5.19.685-8.65 1.84-12.11zM423.33 275.14c-4.99-12.11-8.247-22.49-11.8-34.6-1.84-6.92-3.57-13.84-4.398-19.03-.857-6.92-2.82-13.84-3.146-20.76-.249-5.19-.173-10.381.052-15.571.121-1.73.29-5.19.473-6.92.493-8.65 2.299-15.57 2.742-22.49 4.408 3.46 7.328 8.65 10.343 13.84 4.663 6.92 7.44 13.84 10.493 20.76 2.144-6.92-.078-10.38-3.062-15.57-3.507-8.65-8.192-13.84-11.986-20.76-1.814-3.46-3.451-6.92-4.223-10.38-1.617-8.65-2.86-15.57-1.487-24.22 4.724 0 11.973 12.11 14.661 15.57 13.58 15.57 20.75 36.33 27.874 55.36 2.88 8.65 5.338 17.3 7.246 25.95 5.463 24.22 6.437 50.17 3.287 74.391-.97 6.92-3.163 15.57-3.495 22.49-3.458-1.73-6.557-5.19-9.84-6.92-10.091-10.38-18.36-19.03-23.734-31.14zm32.929 188.572c-5.626-6.92-7.046-19.03-9.233-27.68-2.481-8.65-3.227-19.03-3.941-29.41-1.189-15.571-4.336-31.141-4.915-48.441-.251-6.92-.026-13.84.06-20.76.111-8.65.82-19.03 1.282-27.68 4.649 3.46 9.78 6.92 14.603 8.65 4.173 3.46 3.75 10.38 5.043 13.84 1.606 5.19 2.365 10.38 2.365 17.3 0 12.11-1.026 24.22-1.958 38.06-.914 12.11-.595 24.22-1.414 36.33-.882 13.84 2.09 27.68-1.892 39.79zm.756 8.65c1.503 1.73 1.35 5.19 1.848 6.92.754 3.46-2.288-1.73-1.848-6.92z" class="AprUaMnG_10" font-size="12px" font-family="Arial, DejaVuSans, sans-serif" overflow="visible" fill="none" stroke="#034484" stroke-width="0.60066181"/></g></g><style data-made-with="vivus-instant">@keyframes AprUaMnG_draw{to{stroke-dashoffset:0}}@keyframes AprUaMnG_fade{0%,97.91666666666667%{stroke-opacity:1}to{stroke-opacity:0}}.AprUaMnG_0{stroke-dasharray:666 668;stroke-dashoffset:667;animation:AprUaMnG_draw 10000ms linear 0ms forwards}.AprUaMnG_1{stroke-dasharray:269 271;stroke-dashoffset:270;animation:AprUaMnG_draw 10000ms linear 64ms forwards}.AprUaMnG_2{stroke-dasharray:700 702;stroke-dashoffset:701;animation:AprUaMnG_draw 10000ms linear 129ms forwards}.AprUaMnG_3{stroke-dasharray:792 794;stroke-dashoffset:793;animation:AprUaMnG_draw 10000ms linear 194ms forwards}.AprUaMnG_4{stroke-dasharray:4856 4858;stroke-dashoffset:4857;animation:AprUaMnG_draw 10000ms linear 259ms forwards}.AprUaMnG_5{stroke-dasharray:119 121;stroke-dashoffset:120;animation:AprUaMnG_draw 10000ms linear 324ms forwards}.AprUaMnG_6{stroke-dasharray:12 14;stroke-dashoffset:13;animation:AprUaMnG_draw 10000ms linear 389ms forwards}.AprUaMnG_7,.AprUaMnG_8{stroke-dasharray:4 6;stroke-dashoffset:5;animation:AprUaMnG_draw 10000ms linear 454ms forwards}.AprUaMnG_8{animation:AprUaMnG_draw 10000ms linear 519ms forwards}.AprUaMnG_9{stroke-dasharray:777 779;stroke-dashoffset:778;animation:AprUaMnG_draw 10000ms linear 584ms forwards}.AprUaMnG_10{stroke-dasharray:5844 5846;stroke-dashoffset:5845;animation:AprUaMnG_draw 10000ms linear 649ms forwards}.AprUaMnG_11{stroke-dasharray:44 46;stroke-dashoffset:45;animation:AprUaMnG_draw 10000ms linear 714ms forwards}.AprUaMnG_12{stroke-dasharray:242 244;stroke-dashoffset:243;animation:AprUaMnG_draw 10000ms linear 779ms forwards}.AprUaMnG_13{stroke-dasharray:335 337;stroke-dashoffset:336;animation:AprUaMnG_draw 10000ms linear 844ms forwards}.AprUaMnG_14{stroke-dasharray:381 383;stroke-dashoffset:382;animation:AprUaMnG_draw 10000ms linear 909ms forwards}.AprUaMnG_15{stroke-dasharray:45 47;stroke-dashoffset:46;animation:AprUaMnG_draw 10000ms linear 974ms forwards}.AprUaMnG_16{stroke-dasharray:167 169;stroke-dashoffset:168;animation:AprUaMnG_draw 10000ms linear 1038ms forwards}.AprUaMnG_17{stroke-dasharray:184 186;stroke-dashoffset:185;animation:AprUaMnG_draw 10000ms linear 1103ms forwards}.AprUaMnG_18{stroke-dasharray:222 224;stroke-dashoffset:223;animation:AprUaMnG_draw 10000ms linear 1168ms forwards}.AprUaMnG_19{stroke-dasharray:183 185;stroke-dashoffset:184;animation:AprUaMnG_draw 10000ms linear 1233ms forwards}.AprUaMnG_20{stroke-dasharray:502 504;stroke-dashoffset:503;animation:AprUaMnG_draw 10000ms linear 1298ms forwards}.AprUaMnG_21{stroke-dasharray:156 158;stroke-dashoffset:157;animation:AprUaMnG_draw 10000ms linear 1363ms forwards}.AprUaMnG_22{stroke-dasharray:34 36;stroke-dashoffset:35;animation:AprUaMnG_draw 10000ms linear 1428ms forwards}.AprUaMnG_23{stroke-dasharray:33 35;stroke-dashoffset:34;animation:AprUaMnG_draw 10000ms linear 1493ms forwards}.AprUaMnG_24{stroke-dasharray:227 229;stroke-dashoffset:228;animation:AprUaMnG_draw 10000ms linear 1558ms forwards}.AprUaMnG_25{stroke-dasharray:44 46;stroke-dashoffset:45;animation:AprUaMnG_draw 10000ms linear 1623ms forwards}.AprUaMnG_26{stroke-dasharray:132 134;stroke-dashoffset:133;animation:AprUaMnG_draw 10000ms linear 1688ms forwards}.AprUaMnG_27{stroke-dasharray:114 116;stroke-dashoffset:115;animation:AprUaMnG_draw 10000ms linear 1753ms forwards}.AprUaMnG_28{stroke-dasharray:65 67;stroke-dashoffset:66;animation:AprUaMnG_draw 10000ms linear 1818ms forwards}.AprUaMnG_29{stroke-dasharray:562 564;stroke-dashoffset:563;animation:AprUaMnG_draw 10000ms linear 1883ms forwards}.AprUaMnG_30{stroke-dasharray:314 316;stroke-dashoffset:315;animation:AprUaMnG_draw 10000ms linear 1948ms forwards}.AprUaMnG_31{stroke-dasharray:31 33;stroke-dashoffset:32;animation:AprUaMnG_draw 10000ms linear 2012ms forwards}.AprUaMnG_32{stroke-dasharray:24 26;stroke-dashoffset:25;animation:AprUaMnG_draw 10000ms linear 2077ms forwards}.AprUaMnG_33{stroke-dasharray:89 91;stroke-dashoffset:90;animation:AprUaMnG_draw 10000ms linear 2142ms forwards}.AprUaMnG_34{stroke-dasharray:44 46;stroke-dashoffset:45;animation:AprUaMnG_draw 10000ms linear 2207ms forwards}.AprUaMnG_35{stroke-dasharray:45 47;stroke-dashoffset:46;animation:AprUaMnG_draw 10000ms linear 2272ms forwards}.AprUaMnG_36{stroke-dasharray:10 12;stroke-dashoffset:11;animation:AprUaMnG_draw 10000ms linear 2337ms forwards}.AprUaMnG_37{stroke-dasharray:34 36;stroke-dashoffset:35;animation:AprUaMnG_draw 10000ms linear 2402ms forwards}.AprUaMnG_38{stroke-dasharray:6 8;stroke-dashoffset:7;animation:AprUaMnG_draw 10000ms linear 2467ms forwards}.AprUaMnG_39{stroke-dasharray:34 36;stroke-dashoffset:35;animation:AprUaMnG_draw 10000ms linear 2532ms forwards}.AprUaMnG_40{stroke-dasharray:84 86;stroke-dashoffset:85;animation:AprUaMnG_draw 10000ms linear 2597ms forwards}.AprUaMnG_41{stroke-dasharray:45 47;stroke-dashoffset:46;animation:AprUaMnG_draw 10000ms linear 2662ms forwards}.AprUaMnG_42,.AprUaMnG_43{stroke-dasharray:34 36;stroke-dashoffset:35;animation:AprUaMnG_draw 10000ms linear 2727ms forwards}.AprUaMnG_43{animation:AprUaMnG_draw 10000ms linear 2792ms forwards}.AprUaMnG_44,.AprUaMnG_45{stroke-dasharray:18 20;stroke-dashoffset:19;animation:AprUaMnG_draw 10000ms linear 2857ms forwards}.AprUaMnG_45{animation:AprUaMnG_draw 10000ms linear 2922ms forwards}.AprUaMnG_46{stroke-dasharray:243 245;stroke-dashoffset:244;animation:AprUaMnG_draw 10000ms linear 2987ms forwards}.AprUaMnG_47{stroke-dasharray:94 96;stroke-dashoffset:95;animation:AprUaMnG_draw 10000ms linear 3051ms forwards}.AprUaMnG_48,.AprUaMnG_49,.AprUaMnG_50{stroke-dasharray:41 43;stroke-dashoffset:42;animation:AprUaMnG_draw 10000ms linear 3116ms forwards}.AprUaMnG_49,.AprUaMnG_50{animation:AprUaMnG_draw 10000ms linear 3181ms forwards}.AprUaMnG_50{animation:AprUaMnG_draw 10000ms linear 3246ms forwards}.AprUaMnG_51{stroke-dasharray:168 170;stroke-dashoffset:169;animation:AprUaMnG_draw 10000ms linear 3311ms forwards}.AprUaMnG_52{stroke-dasharray:202 204;stroke-dashoffset:203;animation:AprUaMnG_draw 10000ms linear 3376ms forwards}.AprUaMnG_53{stroke-dasharray:203 205;stroke-dashoffset:204;animation:AprUaMnG_draw 10000ms linear 3441ms forwards}.AprUaMnG_54{stroke-dasharray:168 170;stroke-dashoffset:169;animation:AprUaMnG_draw 10000ms linear 3506ms forwards}.AprUaMnG_55{stroke-dasharray:256 258;stroke-dashoffset:257;animation:AprUaMnG_draw 10000ms linear 3571ms forwards}.AprUaMnG_56{stroke-dasharray:224 226;stroke-dashoffset:225;animation:AprUaMnG_draw 10000ms linear 3636ms forwards}.AprUaMnG_57{stroke-dasharray:254 256;stroke-dashoffset:255;animation:AprUaMnG_draw 10000ms linear 3701ms forwards}.AprUaMnG_58{stroke-dasharray:235 237;stroke-dashoffset:236;animation:AprUaMnG_draw 10000ms linear 3766ms forwards}.AprUaMnG_59{stroke-dasharray:177 179;stroke-dashoffset:178;animation:AprUaMnG_draw 10000ms linear 3831ms forwards}.AprUaMnG_60{stroke-dasharray:92 94;stroke-dashoffset:93;animation:AprUaMnG_draw 10000ms linear 3896ms forwards}.AprUaMnG_61{stroke-dasharray:144 146;stroke-dashoffset:145;animation:AprUaMnG_draw 10000ms linear 3961ms forwards}.AprUaMnG_62{stroke-dasharray:152 154;stroke-dashoffset:153;animation:AprUaMnG_draw 10000ms linear 4025ms forwards}.AprUaMnG_63{stroke-dasharray:175 177;stroke-dashoffset:176;animation:AprUaMnG_draw 10000ms linear 4090ms forwards}.AprUaMnG_64,.AprUaMnG_65{stroke-dasharray:14 16;stroke-dashoffset:15;animation:AprUaMnG_draw 10000ms linear 4155ms forwards}.AprUaMnG_65{animation:AprUaMnG_draw 10000ms linear 4220ms forwards}.AprUaMnG_66{stroke-dasharray:15 17;stroke-dashoffset:16;animation:AprUaMnG_draw 10000ms linear 4285ms forwards}.AprUaMnG_67{stroke-dasharray:193 195;stroke-dashoffset:194;animation:AprUaMnG_draw 10000ms linear 4350ms forwards}.AprUaMnG_68{stroke-dasharray:24 26;stroke-dashoffset:25;animation:AprUaMnG_draw 10000ms linear 4415ms forwards}.AprUaMnG_69{stroke-dasharray:1210 1212;stroke-dashoffset:1211;animation:AprUaMnG_draw 10000ms linear 4480ms forwards}.AprUaMnG_70,.AprUaMnG_71{stroke-dasharray:33 35;stroke-dashoffset:34;animation:AprUaMnG_draw 10000ms linear 4545ms forwards}.AprUaMnG_71{animation:AprUaMnG_draw 10000ms linear 4610ms forwards}.AprUaMnG_72{stroke-dasharray:14 16;stroke-dashoffset:15;animation:AprUaMnG_draw 10000ms linear 4675ms forwards}.AprUaMnG_73,.AprUaMnG_74{stroke-dasharray:33 35;stroke-dashoffset:34;animation:AprUaMnG_draw 10000ms linear 4740ms forwards}.AprUaMnG_74{animation:AprUaMnG_draw 10000ms linear 4805ms forwards}.AprUaMnG_75{stroke-dasharray:16 18;stroke-dashoffset:17;animation:AprUaMnG_draw 10000ms linear 4870ms forwards}.AprUaMnG_76,.AprUaMnG_77{stroke-dasharray:33 35;stroke-dashoffset:34;animation:AprUaMnG_draw 10000ms linear 4935ms forwards}.AprUaMnG_77{animation:AprUaMnG_draw 10000ms linear 5000ms forwards}</style></svg>